<svg width="1280" height="832" viewBox="0 0 1280 832" fill="none" xmlns="http://www.w3.org/2000/svg">
<g clip-path="url(#clip0_258_696)">
<rect width="1280" height="832" fill="white"/>
<rect width="1280" height="832" fill="#130049"/>
<g filter="url(#filter0_f_258_696)">
<path d="M1643.17 778.405C1622.46 829.878 1327.05 759.538 983.347 621.296C639.642 483.053 377.797 329.259 398.5 277.785C419.203 226.312 714.614 296.652 1058.32 434.894C1402.02 573.136 1663.87 726.931 1643.17 778.405Z" fill="#FF50C4" fill-opacity="0.8"/>
</g>
<g filter="url(#filter1_f_258_696)">
<ellipse cx="12.6323" cy="341.704" rx="811.249" ry="109.919" transform="rotate(21.9106 12.6323 341.704)" fill="#7D4BE8" fill-opacity="0.8"/>
</g>
<path d="M994.012 337L994.721 338.035L995.925 338.39L995.16 339.385L995.194 340.639L994.012 340.219L992.83 340.639L992.864 339.385L992.099 338.39L993.303 338.035L994.012 337Z" fill="white" fill-opacity="0.5"/>
<path d="M1111.23 680L1112.02 681.15L1113.36 681.544L1112.51 682.648L1112.55 684.042L1111.23 683.575L1109.92 684.042L1109.96 682.648L1109.11 681.544L1110.45 681.15L1111.23 680Z" fill="white" fill-opacity="0.4"/>
<path d="M254.698 158L255.297 158.874L256.312 159.173L255.667 160.012L255.696 161.071L254.698 160.716L253.7 161.071L253.729 160.012L253.083 159.173L254.099 158.874L254.698 158Z" fill="white" fill-opacity="0.4"/>
<path d="M1068.93 693L1069.62 693.995L1070.77 694.337L1070.04 695.293L1070.07 696.5L1068.93 696.095L1067.8 696.5L1067.83 695.293L1067.09 694.337L1068.25 693.995L1068.93 693Z" fill="white" fill-opacity="0.5"/>
<path d="M985.498 53L986.379 54.2852L987.873 54.7258L986.923 55.9606L986.966 57.5181L985.498 56.9961L984.03 57.5181L984.073 55.9606L983.123 54.7258L984.617 54.2852L985.498 53Z" fill="white" fill-opacity="0.6"/>
<path d="M356.197 716L356.971 717.13L358.285 717.518L357.45 718.603L357.487 719.973L356.197 719.514L354.906 719.973L354.943 718.603L354.108 717.518L355.422 717.13L356.197 716Z" fill="white" fill-opacity="0.4"/>
<path d="M373.427 46L374.282 47.2486L375.734 47.6766L374.811 48.8762L374.853 50.3893L373.427 49.8822L372.001 50.3893L372.042 48.8762L371.119 47.6766L372.571 47.2486L373.427 46Z" fill="white" fill-opacity="0.4"/>
<path d="M121.451 40L122.316 41.2612L123.782 41.6936L122.85 42.9054L122.892 44.4338L121.451 43.9215L120.011 44.4338L120.053 42.9054L119.12 41.6936L120.587 41.2612L121.451 40Z" fill="white" fill-opacity="0.4"/>
<path d="M959.034 771L959.751 772.046L960.968 772.405L960.194 773.41L960.229 774.679L959.034 774.254L957.839 774.679L957.873 773.41L957.1 772.405L958.317 772.046L959.034 771Z" fill="white" fill-opacity="0.4"/>
<path d="M723.471 431L724.343 432.271L725.821 432.707L724.881 433.929L724.923 435.47L723.471 434.953L722.019 435.47L722.061 433.929L721.121 432.707L722.6 432.271L723.471 431Z" fill="white" fill-opacity="0.4"/>
<path d="M977.777 -6L978.404 -5.08562L979.467 -4.77218L978.791 -3.89363L978.822 -2.78553L977.777 -3.15694L976.733 -2.78553L976.763 -3.89363L976.087 -4.77218L977.151 -5.08562L977.777 -6Z" fill="white" fill-opacity="0.5"/>
<path d="M663.01 635L663.718 636.034L664.92 636.388L664.156 637.382L664.19 638.635L663.01 638.215L661.829 638.635L661.863 637.382L661.099 636.388L662.301 636.034L663.01 635Z" fill="white" fill-opacity="0.5"/>
<path d="M1331.97 313L1332.66 314.013L1333.84 314.36L1333.09 315.333L1333.13 316.561L1331.97 316.149L1330.81 316.561L1330.85 315.333L1330.1 314.36L1331.27 314.013L1331.97 313Z" fill="white" fill-opacity="0.3"/>
<path d="M1006.35 804L1007.17 805.207L1008.58 805.62L1007.68 806.78L1007.72 808.242L1006.35 807.752L1004.97 808.242L1005.01 806.78L1004.12 805.62L1005.52 805.207L1006.35 804Z" fill="white" fill-opacity="0.3"/>
<path d="M894.063 642L894.79 643.061L896.024 643.425L895.24 644.445L895.275 645.731L894.063 645.3L892.85 645.731L892.886 644.445L892.101 643.425L893.335 643.061L894.063 642Z" fill="white" fill-opacity="0.4"/>
<path d="M151.565 62L152.117 62.8054L153.054 63.0815L152.459 63.8553L152.485 64.8313L151.565 64.5041L150.645 64.8313L150.672 63.8553L150.077 63.0815L151.013 62.8054L151.565 62Z" fill="white" fill-opacity="0.4"/>
<path d="M629.276 165L630.079 166.171L631.441 166.573L630.575 167.698L630.614 169.118L629.276 168.642L627.939 169.118L627.978 167.698L627.112 166.573L628.474 166.171L629.276 165Z" fill="white" fill-opacity="0.4"/>
<path d="M843.532 239L844.072 239.788L844.988 240.058L844.406 240.815L844.432 241.77L843.532 241.45L842.632 241.77L842.658 240.815L842.075 240.058L842.992 239.788L843.532 239Z" fill="white" fill-opacity="0.3"/>
<path d="M797.82 332L798.462 332.937L799.552 333.258L798.859 334.158L798.89 335.293L797.82 334.912L796.751 335.293L796.782 334.158L796.089 333.258L797.179 332.937L797.82 332Z" fill="white" fill-opacity="0.3"/>
<path d="M167.508 834L168.039 834.776L168.941 835.042L168.368 835.787L168.394 836.727L167.508 836.412L166.622 836.727L166.648 835.787L166.074 835.042L166.976 834.776L167.508 834Z" fill="white" fill-opacity="0.4"/>
<path d="M583.862 430L584.518 430.958L585.632 431.286L584.924 432.207L584.956 433.368L583.862 432.978L582.768 433.368L582.8 432.207L582.091 431.286L583.205 430.958L583.862 430Z" fill="white" fill-opacity="0.4"/>
<path d="M481.196 603L481.97 604.13L483.283 604.517L482.448 605.602L482.486 606.971L481.196 606.512L479.905 606.971L479.943 605.602L479.108 604.517L480.421 604.13L481.196 603Z" fill="white" fill-opacity="0.4"/>
<path d="M850.437 34L851.297 35.254L852.755 35.6838L851.828 36.8886L851.87 38.4083L850.437 37.8989L849.005 38.4083L849.047 36.8886L848.12 35.6838L849.578 35.254L850.437 34Z" fill="white" fill-opacity="0.4"/>
<path d="M1090.3 279L1091.11 280.183L1092.49 280.589L1091.61 281.725L1091.65 283.159L1090.3 282.678L1088.95 283.159L1088.99 281.725L1088.11 280.589L1089.49 280.183L1090.3 279Z" fill="white" fill-opacity="0.5"/>
<path d="M108.942 170L109.627 170.999L110.788 171.342L110.05 172.302L110.083 173.512L108.942 173.106L107.801 173.512L107.834 172.302L107.095 171.342L108.257 170.999L108.942 170Z" fill="white" fill-opacity="0.4"/>
<path d="M873.558 590L874.107 590.801L875.039 591.076L874.447 591.846L874.473 592.818L873.558 592.492L872.642 592.818L872.669 591.846L872.077 591.076L873.009 590.801L873.558 590Z" fill="white" fill-opacity="0.5"/>
<path d="M764.741 285L765.354 285.895L766.396 286.202L765.734 287.063L765.763 288.148L764.741 287.784L763.718 288.148L763.747 287.063L763.086 286.202L764.127 285.895L764.741 285Z" fill="white" fill-opacity="0.6"/>
<path d="M354.935 846L355.617 846.995L356.774 847.337L356.038 848.293L356.072 849.499L354.935 849.095L353.798 849.499L353.831 848.293L353.095 847.337L354.252 846.995L354.935 846Z" fill="white" fill-opacity="0.6"/>
<path d="M1058.9 539L1059.57 539.976L1060.7 540.311L1059.98 541.249L1060.01 542.432L1058.9 542.035L1057.78 542.432L1057.81 541.249L1057.09 540.311L1058.23 539.976L1058.9 539Z" fill="white" fill-opacity="0.5"/>
<path d="M1112.67 587L1113.25 587.857L1114.25 588.151L1113.62 588.975L1113.65 590.014L1112.67 589.665L1111.69 590.014L1111.72 588.975L1111.08 588.151L1112.08 587.857L1112.67 587Z" fill="white" fill-opacity="0.3"/>
<path d="M929.871 818L930.531 818.963L931.65 819.293L930.938 820.217L930.971 821.384L929.871 820.993L928.771 821.384L928.804 820.217L928.092 819.293L929.211 818.963L929.871 818Z" fill="white" fill-opacity="0.3"/>
<path d="M809.885 850L810.55 850.97L811.678 851.302L810.961 852.234L810.993 853.41L809.885 853.016L808.777 853.41L808.81 852.234L808.093 851.302L809.221 850.97L809.885 850Z" fill="white" fill-opacity="0.4"/>
<path d="M554.319 465L555.137 466.193L556.524 466.602L555.642 467.748L555.682 469.194L554.319 468.71L552.956 469.194L552.996 467.748L552.114 466.602L553.501 466.193L554.319 465Z" fill="white" fill-opacity="0.5"/>
<path d="M134.153 189L134.913 190.108L136.201 190.488L135.382 191.552L135.419 192.895L134.153 192.445L132.888 192.895L132.925 191.552L132.106 190.488L133.394 190.108L134.153 189Z" fill="white" fill-opacity="0.5"/>
<path d="M1062.58 617L1063.13 617.812L1064.08 618.09L1063.48 618.87L1063.51 619.854L1062.58 619.525L1061.65 619.854L1061.68 618.87L1061.08 618.09L1062.02 617.812L1062.58 617Z" fill="white" fill-opacity="0.4"/>
<path d="M360.138 121L360.892 122.1L362.171 122.477L361.358 123.534L361.395 124.867L360.138 124.42L358.882 124.867L358.918 123.534L358.105 122.477L359.384 122.1L360.138 121Z" fill="white" fill-opacity="0.4"/>
<path d="M653.23 109L654.017 110.148L655.352 110.541L654.503 111.644L654.541 113.034L653.23 112.568L651.92 113.034L651.958 111.644L651.109 110.541L652.444 110.148L653.23 109Z" fill="white" fill-opacity="0.6"/>
<path d="M441.159 90L441.92 91.1108L443.212 91.4916L442.391 92.5589L442.428 93.905L441.159 93.4538L439.89 93.905L439.927 92.5589L439.106 91.4916L440.398 91.1108L441.159 90Z" fill="white" fill-opacity="0.5"/>
<path d="M731.18 828L731.949 829.122L733.253 829.506L732.424 830.584L732.461 831.943L731.18 831.488L729.899 831.943L729.936 830.584L729.107 829.506L730.411 829.122L731.18 828Z" fill="white" fill-opacity="0.4"/>
<path d="M558.854 92L559.508 92.9541L560.618 93.2811L559.912 94.1978L559.944 95.354L558.854 94.9664L557.765 95.354L557.796 94.1978L557.091 93.2811L558.201 92.9541L558.854 92Z" fill="white" fill-opacity="0.5"/>
<path d="M1130.07 409L1130.8 410.064L1132.03 410.429L1131.25 411.451L1131.28 412.74L1130.07 412.308L1128.85 412.74L1128.89 411.451L1128.1 410.429L1129.34 410.064L1130.07 409Z" fill="white" fill-opacity="0.4"/>
<path d="M767.158 513L767.919 514.11L769.211 514.491L768.39 515.558L768.427 516.904L767.158 516.453L765.89 516.904L765.927 515.558L765.106 514.491L766.397 514.11L767.158 513Z" fill="white" fill-opacity="0.5"/>
<path d="M751.093 402L751.831 403.077L753.083 403.446L752.287 404.48L752.322 405.785L751.093 405.348L749.863 405.785L749.899 404.48L749.103 403.446L750.355 403.077L751.093 402Z" fill="white" fill-opacity="0.4"/>
<path d="M221.22 825L222.003 826.142L223.331 826.534L222.487 827.631L222.525 829.016L221.22 828.552L219.915 829.016L219.953 827.631L219.109 826.534L220.437 826.142L221.22 825Z" fill="white" fill-opacity="0.6"/>
<path d="M1124.45 715L1125.31 716.259L1126.77 716.69L1125.84 717.899L1125.88 719.425L1124.45 718.913L1123.01 719.425L1123.05 717.899L1122.12 716.69L1123.58 716.259L1124.45 715Z" fill="white" fill-opacity="0.6"/>
<path d="M647.612 627L648.181 627.829L649.145 628.114L648.532 628.911L648.56 629.916L647.612 629.579L646.665 629.916L646.692 628.911L646.079 628.114L647.044 627.829L647.612 627Z" fill="white" fill-opacity="0.4"/>
<path d="M1338.62 289L1339.19 289.833L1340.16 290.119L1339.54 290.919L1339.57 291.929L1338.62 291.59L1337.67 291.929L1337.7 290.919L1337.08 290.119L1338.05 289.833L1338.62 289Z" fill="white" fill-opacity="0.6"/>
<path d="M922.322 81L923.141 82.1948L924.53 82.6043L923.647 83.7523L923.687 85.2002L922.322 84.7149L920.957 85.2002L920.997 83.7523L920.114 82.6043L921.503 82.1948L922.322 81Z" fill="white" fill-opacity="0.6"/>
<path d="M1019.3 479L1020.12 480.186L1021.5 480.592L1020.62 481.732L1020.66 483.169L1019.3 482.687L1017.95 483.169L1017.99 481.732L1017.11 480.592L1018.49 480.186L1019.3 479Z" fill="white" fill-opacity="0.4"/>
<path d="M930.789 555L931.419 555.92L932.489 556.236L931.809 557.12L931.84 558.235L930.789 557.861L929.737 558.235L929.768 557.12L929.088 556.236L930.158 555.92L930.789 555Z" fill="white" fill-opacity="0.5"/>
<path d="M1075.53 280L1076.07 280.787L1076.98 281.057L1076.4 281.813L1076.43 282.766L1075.53 282.446L1074.63 282.766L1074.66 281.813L1074.08 281.057L1074.99 280.787L1075.53 280Z" fill="white" fill-opacity="0.5"/>
<path d="M631.15 719L631.909 720.106L633.195 720.486L632.377 721.549L632.414 722.889L631.15 722.44L629.887 722.889L629.923 721.549L629.106 720.486L630.392 720.106L631.15 719Z" fill="white" fill-opacity="0.5"/>
<path d="M67.4473 749L68.3102 750.259L69.7744 750.691L68.8435 751.901L68.8855 753.427L67.4473 752.915L66.009 753.427L66.051 751.901L65.1201 750.691L66.5843 750.259L67.4473 749Z" fill="white" fill-opacity="0.5"/>
<path d="M1051.35 676L1052.17 677.207L1053.58 677.621L1052.68 678.781L1052.72 680.243L1051.35 679.753L1049.97 680.243L1050.01 678.781L1049.12 677.621L1050.52 677.207L1051.35 676Z" fill="white" fill-opacity="0.6"/>
<path d="M1351.46 156L1352.33 157.268L1353.81 157.702L1352.87 158.921L1352.91 160.457L1351.46 159.942L1350.02 160.457L1350.06 158.921L1349.12 157.702L1350.6 157.268L1351.46 156Z" fill="white" fill-opacity="0.4"/>
<path d="M68.4042 243L69.252 244.237L70.6904 244.661L69.7759 245.85L69.8171 247.349L68.4042 246.846L66.9912 247.349L67.0325 245.85L66.118 244.661L67.5564 244.237L68.4042 243Z" fill="white" fill-opacity="0.4"/>
<path d="M882.068 757L882.797 758.064L884.034 758.429L883.247 759.451L883.283 760.74L882.068 760.308L880.853 760.74L880.888 759.451L880.102 758.429L881.339 758.064L882.068 757Z" fill="white" fill-opacity="0.6"/>
<path d="M199.174 707L199.941 708.119L201.242 708.502L200.415 709.577L200.452 710.933L199.174 710.478L197.896 710.933L197.934 709.577L197.107 708.502L198.408 708.119L199.174 707Z" fill="white" fill-opacity="0.5"/>
<path d="M268.43 826L269.287 827.25L270.741 827.679L269.816 828.88L269.858 830.395L268.43 829.887L267.002 830.395L267.044 828.88L266.119 827.679L267.573 827.25L268.43 826Z" fill="white" fill-opacity="0.5"/>
<path d="M117.836 331L118.483 331.945L119.582 332.268L118.883 333.176L118.915 334.321L117.836 333.937L116.757 334.321L116.788 333.176L116.09 332.268L117.189 331.945L117.836 331Z" fill="white" fill-opacity="0.3"/>
<path d="M1105.24 847L1106.03 848.153L1107.37 848.548L1106.52 849.656L1106.56 851.053L1105.24 850.585L1103.92 851.053L1103.96 849.656L1103.11 848.548L1104.45 848.153L1105.24 847Z" fill="white" fill-opacity="0.6"/>
<path d="M1161.21 863L1161.98 864.135L1163.3 864.524L1162.47 865.615L1162.5 866.991L1161.21 866.53L1159.91 866.991L1159.95 865.615L1159.11 864.524L1160.43 864.135L1161.21 863Z" fill="white" fill-opacity="0.6"/>
<path d="M1205.18 392L1205.94 393.119L1207.24 393.503L1206.42 394.578L1206.45 395.935L1205.18 395.48L1203.9 395.935L1203.93 394.578L1203.11 393.503L1204.41 393.119L1205.18 392Z" fill="white" fill-opacity="0.4"/>
<path d="M79.2702 182L80.0707 183.168L81.4289 183.568L80.5654 184.691L80.6043 186.106L79.2702 185.632L77.936 186.106L77.9749 184.691L77.1114 183.568L78.4697 183.168L79.2702 182Z" fill="white" fill-opacity="0.3"/>
<path d="M217.684 505L218.278 505.867L219.286 506.164L218.645 506.996L218.674 508.046L217.684 507.694L216.695 508.046L216.723 506.996L216.083 506.164L217.09 505.867L217.684 505Z" fill="white" fill-opacity="0.5"/>
<path d="M1280.1 108L1280.84 109.081L1282.1 109.452L1281.3 110.491L1281.34 111.802L1280.1 111.363L1278.87 111.802L1278.9 110.491L1278.1 109.452L1279.36 109.081L1280.1 108Z" fill="white" fill-opacity="0.4"/>
<path d="M431.604 848L432.17 848.825L433.13 849.108L432.52 849.901L432.547 850.902L431.604 850.567L430.662 850.902L430.689 849.901L430.079 849.108L431.039 848.825L431.604 848Z" fill="white" fill-opacity="0.4"/>
<path d="M650.802 756L651.438 756.927L652.516 757.245L651.831 758.136L651.862 759.26L650.802 758.883L649.743 759.26L649.774 758.136L649.089 757.245L650.167 756.927L650.802 756Z" fill="white" fill-opacity="0.4"/>
<path d="M969.922 289L970.599 289.989L971.749 290.328L971.018 291.278L971.051 292.476L969.922 292.074L968.792 292.476L968.825 291.278L968.094 290.328L969.244 289.989L969.922 289Z" fill="white" fill-opacity="0.5"/>
<path d="M884.165 109L884.928 110.114L886.223 110.496L885.4 111.566L885.437 112.916L884.165 112.463L882.893 112.916L882.93 111.566L882.106 110.496L883.401 110.114L884.165 109Z" fill="white" fill-opacity="0.5"/>
<path d="M615.943 531L616.628 532L617.791 532.342L617.052 533.303L617.085 534.514L615.943 534.108L614.801 534.514L614.834 533.303L614.095 532.342L615.258 532L615.943 531Z" fill="white" fill-opacity="0.4"/>
<path d="M1164.59 550L1165.15 550.818L1166.1 551.099L1165.5 551.885L1165.53 552.876L1164.59 552.544L1163.66 552.876L1163.68 551.885L1163.08 551.099L1164.03 550.818L1164.59 550Z" fill="white" fill-opacity="0.6"/>
<path d="M160.127 827L160.877 828.094L162.149 828.469L161.34 829.521L161.377 830.847L160.127 830.402L158.877 830.847L158.913 829.521L158.104 828.469L159.377 828.094L160.127 827Z" fill="white" fill-opacity="0.4"/>
<path d="M1206.84 105L1207.49 105.947L1208.59 106.271L1207.89 107.181L1207.92 108.328L1206.84 107.943L1205.76 108.328L1205.79 107.181L1205.09 106.271L1206.19 105.947L1206.84 105Z" fill="white" fill-opacity="0.6"/>
<path d="M155.271 621L156.072 622.168L157.431 622.569L156.567 623.692L156.606 625.108L155.271 624.633L153.936 625.108L153.975 623.692L153.111 622.569L154.47 622.168L155.271 621Z" fill="white" fill-opacity="0.6"/>
<path d="M1076.07 582L1076.8 583.066L1078.04 583.432L1077.25 584.456L1077.29 585.748L1076.07 585.315L1074.85 585.748L1074.89 584.456L1074.1 583.432L1075.34 583.066L1076.07 582Z" fill="white" fill-opacity="0.3"/>
<path d="M810.307 143L811.12 144.187L812.501 144.594L811.623 145.734L811.663 147.173L810.307 146.691L808.951 147.173L808.991 145.734L808.113 144.594L809.493 144.187L810.307 143Z" fill="white" fill-opacity="0.3"/>
<path d="M778.643 662L779.223 662.845L780.206 663.135L779.581 663.948L779.609 664.972L778.643 664.629L777.678 664.972L777.706 663.948L777.081 663.135L778.064 662.845L778.643 662Z" fill="white" fill-opacity="0.3"/>
<path d="M532.339 575L533.164 576.204L534.564 576.616L533.674 577.773L533.714 579.231L532.339 578.742L530.965 579.231L531.005 577.773L530.115 576.616L531.514 576.204L532.339 575Z" fill="white" fill-opacity="0.3"/>
<path d="M97.504 370L98.0343 370.774L98.9341 371.039L98.3621 371.782L98.3879 372.72L97.504 372.406L96.6202 372.72L96.646 371.782L96.0739 371.039L96.9737 370.774L97.504 370Z" fill="white" fill-opacity="0.6"/>
<path d="M172.257 1L173.053 2.1614L174.404 2.55951L173.545 3.67541L173.584 5.08286L172.257 4.61112L170.931 5.08286L170.969 3.67541L170.111 2.55951L171.461 2.1614L172.257 1Z" fill="white" fill-opacity="0.4"/>
<path d="M93.9274 460L94.6069 460.992L95.76 461.332L95.027 462.284L95.06 463.486L93.9274 463.083L92.7947 463.486L92.8277 462.284L92.0947 461.332L93.2478 460.992L93.9274 460Z" fill="white" fill-opacity="0.6"/>
<path d="M549.069 707L549.799 708.065L551.037 708.43L550.25 709.452L550.285 710.743L549.069 710.31L547.853 710.743L547.889 709.452L547.102 708.43L548.34 708.065L549.069 707Z" fill="white" fill-opacity="0.3"/>
<path d="M775.031 70L775.747 71.0449L776.962 71.4031L776.19 72.407L776.224 73.6732L775.031 73.2488L773.837 73.6732L773.872 72.407L773.1 71.4031L774.315 71.0449L775.031 70Z" fill="white" fill-opacity="0.5"/>
<path d="M513.004 301L513.71 302.031L514.909 302.384L514.147 303.375L514.182 304.624L513.004 304.206L511.826 304.624L511.861 303.375L511.098 302.384L512.297 302.031L513.004 301Z" fill="white" fill-opacity="0.3"/>
<path d="M383.482 602L384.357 603.277L385.843 603.715L384.898 604.942L384.941 606.49L383.482 605.971L382.023 606.49L382.066 604.942L381.122 603.715L382.607 603.277L383.482 602Z" fill="white" fill-opacity="0.6"/>
<path d="M1293.56 39L1294.11 39.8038L1295.05 40.0793L1294.45 40.8516L1294.48 41.8256L1293.56 41.4991L1292.64 41.8256L1292.67 40.8516L1292.08 40.0793L1293.01 39.8038L1293.56 39Z" fill="white" fill-opacity="0.4"/>
<path d="M1114.27 590L1115.06 591.165L1116.42 591.565L1115.56 592.685L1115.6 594.097L1114.27 593.624L1112.93 594.097L1112.97 592.685L1112.11 591.565L1113.47 591.165L1114.27 590Z" fill="white" fill-opacity="0.3"/>
<path d="M135.653 473L136.235 473.85L137.224 474.142L136.595 474.959L136.624 475.989L135.653 475.644L134.681 475.989L134.71 474.959L134.081 474.142L135.07 473.85L135.653 473Z" fill="white" fill-opacity="0.4"/>
<path d="M1037.69 754L1038.29 754.871L1039.3 755.169L1038.66 756.006L1038.69 757.061L1037.69 756.708L1036.7 757.061L1036.73 756.006L1036.08 755.169L1037.1 754.871L1037.69 754Z" fill="white" fill-opacity="0.4"/>
<path d="M-70.9117 178L-70.1753 179.074L-68.9259 179.443L-69.7202 180.475L-69.6844 181.777L-70.9117 181.341L-72.139 181.777L-72.1031 180.475L-72.8975 179.443L-71.648 179.074L-70.9117 178Z" fill="white" fill-opacity="0.4"/>
<path d="M977.638 86L978.216 86.8427L979.196 87.1316L978.573 87.9413L978.601 88.9626L977.638 88.6203L976.675 88.9626L976.703 87.9413L976.08 87.1316L977.06 86.8427L977.638 86Z" fill="white" fill-opacity="0.4"/>
<path d="M99.9799 652L100.678 653.019L101.863 653.368L101.11 654.347L101.143 655.581L99.9799 655.167L98.8164 655.581L98.8503 654.347L98.0972 653.368L99.2818 653.019L99.9799 652Z" fill="white" fill-opacity="0.6"/>
<path d="M778.996 342L779.7 343.027L780.895 343.379L780.135 344.366L780.17 345.611L778.996 345.194L777.823 345.611L777.857 344.366L777.098 343.379L778.292 343.027L778.996 342Z" fill="white" fill-opacity="0.4"/>
<path d="M105.064 750L105.792 751.062L107.027 751.426L106.242 752.446L106.277 753.733L105.064 753.302L103.851 753.733L103.886 752.446L103.101 751.426L104.336 751.062L105.064 750Z" fill="white" fill-opacity="0.5"/>
<path d="M431.79 708L432.422 708.921L433.493 709.237L432.812 710.122L432.843 711.238L431.79 710.864L430.738 711.238L430.769 710.122L430.088 709.237L431.159 708.921L431.79 708Z" fill="white" fill-opacity="0.4"/>
<path d="M981.721 854L982.328 854.886L983.358 855.189L982.703 856.04L982.733 857.113L981.721 856.754L980.71 857.113L980.739 856.04L980.085 855.189L981.114 854.886L981.721 854Z" fill="white" fill-opacity="0.6"/>
<path d="M150.433 780L151.29 781.252L152.746 781.681L151.821 782.883L151.862 784.4L150.433 783.892L149.003 784.4L149.045 782.883L148.119 781.681L149.575 781.252L150.433 780Z" fill="white" fill-opacity="0.6"/>
<path d="M231.002 245L231.708 246.03L232.907 246.383L232.145 247.373L232.179 248.622L231.002 248.203L229.826 248.622L229.86 247.373L229.098 246.383L230.296 246.03L231.002 245Z" fill="white" fill-opacity="0.4"/>
<path d="M877.351 330L878.18 331.209L879.586 331.624L878.692 332.786L878.732 334.252L877.351 333.761L875.969 334.252L876.01 332.786L875.115 331.624L876.522 331.209L877.351 330Z" fill="white" fill-opacity="0.6"/>
<path d="M1018.92 6L1019.59 6.98618L1020.74 7.32422L1020.01 8.27176L1020.04 9.46686L1018.92 9.06629L1017.79 9.46686L1017.82 8.27176L1017.09 7.32422L1018.24 6.98618L1018.92 6Z" fill="white" fill-opacity="0.5"/>
<path d="M64.8042 52L65.4404 52.9283L66.5198 53.2464L65.8336 54.1383L65.8645 55.2632L64.8042 54.8862L63.7439 55.2632L63.7749 54.1383L63.0886 53.2464L64.168 52.9283L64.8042 52Z" fill="white" fill-opacity="0.5"/>
<path d="M660.182 -7L660.951 -5.87751L662.256 -5.49274L661.426 -4.41424L661.464 -3.05395L660.182 -3.50988L658.9 -3.05395L658.937 -4.41424L658.107 -5.49274L659.412 -5.87751L660.182 -7Z" fill="white" fill-opacity="0.5"/>
<path d="M1238.03 466L1238.74 467.044L1239.96 467.401L1239.19 468.404L1239.22 469.669L1238.03 469.245L1236.84 469.669L1236.87 468.404L1236.1 467.401L1237.31 467.044L1238.03 466Z" fill="white" fill-opacity="0.5"/>
<path d="M671.484 733L672.36 734.278L673.847 734.716L672.902 735.945L672.944 737.494L671.484 736.974L670.024 737.494L670.067 735.945L669.122 734.716L670.608 734.278L671.484 733Z" fill="white" fill-opacity="0.4"/>
<path d="M327.8 569L328.435 569.926L329.512 570.244L328.828 571.134L328.859 572.256L327.8 571.88L326.742 572.256L326.773 571.134L326.088 570.244L327.166 569.926L327.8 569Z" fill="white" fill-opacity="0.6"/>
<path d="M1020.92 552L1021.6 552.989L1022.75 553.328L1022.02 554.278L1022.05 555.477L1020.92 555.075L1019.79 555.477L1019.83 554.278L1019.09 553.328L1020.24 552.989L1020.92 552Z" fill="white" fill-opacity="0.5"/>
<path d="M1186.64 243L1187.22 243.846L1188.21 244.135L1187.58 244.948L1187.61 245.972L1186.64 245.629L1185.68 245.972L1185.71 244.948L1185.08 244.135L1186.06 243.846L1186.64 243Z" fill="white" fill-opacity="0.6"/>
<path d="M968.19 260L968.962 261.127L970.272 261.513L969.439 262.596L969.477 263.961L968.19 263.503L966.903 263.961L966.94 262.596L966.108 261.513L967.418 261.127L968.19 260Z" fill="white" fill-opacity="0.4"/>
<path d="M837.712 44L838.316 44.8808L839.34 45.1827L838.689 46.029L838.718 47.0964L837.712 46.7387L836.706 47.0964L836.735 46.029L836.084 45.1827L837.108 44.8808L837.712 44Z" fill="white" fill-opacity="0.5"/>
<path d="M1037.78 498L1038.4 498.914L1039.47 499.227L1038.79 500.105L1038.82 501.213L1037.78 500.842L1036.73 501.213L1036.76 500.105L1036.09 499.227L1037.15 498.914L1037.78 498Z" fill="white" fill-opacity="0.5"/>
<path d="M911.266 -8L912.065 -6.83422L913.42 -6.43461L912.559 -5.31451L912.597 -3.90176L911.266 -4.37528L909.934 -3.90176L909.973 -5.31451L909.111 -6.43461L910.467 -6.83422L911.266 -8Z" fill="white" fill-opacity="0.4"/>
<path d="M804.47 64L805.342 65.2711L806.82 65.7068L805.88 66.9281L805.922 68.4684L804.47 67.9521L803.019 68.4684L803.061 66.9281L802.121 65.7068L803.599 65.2711L804.47 64Z" fill="white" fill-opacity="0.4"/>
<path d="M1281.09 5L1281.82 6.07296L1283.07 6.44075L1282.28 7.47167L1282.31 8.77193L1281.09 8.33612L1279.86 8.77193L1279.9 7.47167L1279.1 6.44075L1280.35 6.07296L1281.09 5Z" fill="white" fill-opacity="0.4"/>
<path d="M359.398 312L360.244 313.234L361.678 313.657L360.766 314.842L360.807 316.338L359.398 315.836L357.989 316.338L358.03 314.842L357.118 313.657L358.552 313.234L359.398 312Z" fill="white" fill-opacity="0.6"/>
<path d="M459.451 687L460.315 688.261L461.782 688.693L460.849 689.905L460.891 691.433L459.451 690.921L458.011 691.433L458.053 689.905L457.12 688.693L458.587 688.261L459.451 687Z" fill="white" fill-opacity="0.5"/>
<path d="M1225.41 101L1226.26 102.24L1227.7 102.664L1226.78 103.855L1226.82 105.357L1225.41 104.854L1223.99 105.357L1224.03 103.855L1223.12 102.664L1224.56 102.24L1225.41 101Z" fill="white" fill-opacity="0.5"/>
<path d="M1051.92 742L1052.59 742.987L1053.74 743.325L1053.01 744.273L1053.04 745.469L1051.92 745.068L1050.79 745.469L1050.82 744.273L1050.09 743.325L1051.24 742.987L1051.92 742Z" fill="white" fill-opacity="0.3"/>
<path d="M1060.59 547L1061.16 547.82L1062.11 548.101L1061.5 548.888L1061.53 549.882L1060.59 549.549L1059.66 549.882L1059.68 548.888L1059.08 548.101L1060.03 547.82L1060.59 547Z" fill="white" fill-opacity="0.5"/>
<path d="M67.1132 722L67.8583 723.087L69.1226 723.46L68.3188 724.505L68.3551 725.822L67.1132 725.381L65.8713 725.822L65.9075 724.505L65.1038 723.46L66.368 723.087L67.1132 722Z" fill="white" fill-opacity="0.4"/>
<path d="M1017.22 769L1018 770.14L1019.32 770.531L1018.48 771.626L1018.52 773.008L1017.22 772.545L1015.91 773.008L1015.95 771.626L1015.11 770.531L1016.43 770.14L1017.22 769Z" fill="white" fill-opacity="0.5"/>
<path d="M1013.25 862L1014.04 863.155L1015.38 863.551L1014.53 864.661L1014.56 866.061L1013.25 865.592L1011.93 866.061L1011.96 864.661L1011.11 863.551L1012.45 863.155L1013.25 862Z" fill="white" fill-opacity="0.6"/>
<path d="M368.209 347L368.988 348.137L370.309 348.526L369.469 349.618L369.507 350.995L368.209 350.534L366.911 350.995L366.949 349.618L366.108 348.526L367.43 348.137L368.209 347Z" fill="white" fill-opacity="0.3"/>
<path d="M172.741 814L173.355 814.896L174.397 815.203L173.735 816.064L173.765 817.149L172.741 816.786L171.718 817.149L171.748 816.064L171.086 815.203L172.127 814.896L172.741 814Z" fill="white" fill-opacity="0.5"/>
<path d="M544.57 800L545.124 800.808L546.063 801.085L545.466 801.861L545.493 802.84L544.57 802.512L543.647 802.84L543.674 801.861L543.077 801.085L544.017 800.808L544.57 800Z" fill="white" fill-opacity="0.6"/>
<path d="M714.41 318L715.26 319.24L716.702 319.665L715.785 320.857L715.827 322.36L714.41 321.856L712.994 322.36L713.035 320.857L712.118 319.665L713.56 319.24L714.41 318Z" fill="white" fill-opacity="0.4"/>
<path d="M363.207 384L363.985 385.136L365.306 385.525L364.466 386.616L364.504 387.992L363.207 387.531L361.91 387.992L361.948 386.616L361.108 385.525L362.429 385.136L363.207 384Z" fill="white" fill-opacity="0.4"/>
<path d="M1016.04 861L1016.76 862.05L1017.98 862.41L1017.2 863.419L1017.24 864.691L1016.04 864.264L1014.84 864.691L1014.88 863.419L1014.1 862.41L1015.32 862.05L1016.04 861Z" fill="white" fill-opacity="0.3"/>
<path d="M1261.99 350L1262.7 351.026L1263.89 351.377L1263.13 352.363L1263.16 353.605L1261.99 353.189L1260.82 353.605L1260.86 352.363L1260.1 351.377L1261.29 351.026L1261.99 350Z" fill="white" fill-opacity="0.5"/>
<path d="M993.667 362L994.255 362.858L995.253 363.152L994.619 363.976L994.647 365.016L993.667 364.667L992.688 365.016L992.716 363.976L992.082 363.152L993.079 362.858L993.667 362Z" fill="white" fill-opacity="0.5"/>
<path d="M124.916 741L125.592 741.986L126.738 742.324L126.01 743.271L126.042 744.466L124.916 744.065L123.79 744.466L123.823 743.271L123.094 742.324L124.241 741.986L124.916 741Z" fill="white" fill-opacity="0.5"/>
<path d="M766.175 758L766.942 759.119L768.243 759.503L767.416 760.578L767.453 761.934L766.175 761.479L764.897 761.934L764.934 760.578L764.107 759.503L765.408 759.119L766.175 758Z" fill="white" fill-opacity="0.4"/>
<path d="M978.334 52L979.157 53.2009L980.554 53.6126L979.666 54.7665L979.706 56.2218L978.334 55.734L976.962 56.2218L977.002 54.7665L976.115 53.6126L977.511 53.2009L978.334 52Z" fill="white" fill-opacity="0.6"/>
<path d="M1304.32 717L1305.14 718.195L1306.53 718.605L1305.65 719.754L1305.69 721.202L1304.32 720.717L1302.96 721.202L1303 719.754L1302.11 718.605L1303.5 718.195L1304.32 717Z" fill="white" fill-opacity="0.5"/>
<path d="M1287.96 104L1288.65 105.009L1289.83 105.355L1289.08 106.325L1289.11 107.548L1287.96 107.138L1286.81 107.548L1286.84 106.325L1286.1 105.355L1287.27 105.009L1287.96 104Z" fill="white" fill-opacity="0.5"/>
<path d="M356.694 610L357.292 610.872L358.305 611.17L357.661 612.008L357.69 613.064L356.694 612.71L355.699 613.064L355.728 612.008L355.083 611.17L356.097 610.872L356.694 610Z" fill="white" fill-opacity="0.3"/>
<path d="M376.192 350L376.965 351.128L378.276 351.514L377.442 352.598L377.48 353.964L376.192 353.506L374.904 353.964L374.941 352.598L374.108 351.514L375.419 351.128L376.192 350Z" fill="white" fill-opacity="0.3"/>
<path d="M1158.61 349L1159.18 349.83L1160.15 350.114L1159.53 350.911L1159.56 351.916L1158.61 351.579L1157.66 351.916L1157.69 350.911L1157.08 350.114L1158.04 349.83L1158.61 349Z" fill="white" fill-opacity="0.5"/>
<path d="M527.041 858L527.76 859.05L528.981 859.41L528.205 860.419L528.24 861.691L527.041 861.265L525.841 861.691L525.876 860.419L525.1 859.41L526.321 859.05L527.041 858Z" fill="white" fill-opacity="0.3"/>
<path d="M524.708 228L525.31 228.879L526.332 229.18L525.682 230.024L525.712 231.089L524.708 230.732L523.704 231.089L523.734 230.024L523.084 229.18L524.106 228.879L524.708 228Z" fill="white" fill-opacity="0.6"/>
<path d="M123.488 257L124.365 258.28L125.853 258.719L124.907 259.948L124.949 261.499L123.488 260.979L122.026 261.499L122.068 259.948L121.122 258.719L122.61 258.28L123.488 257Z" fill="white" fill-opacity="0.4"/>
<path d="M976.016 347L976.727 348.037L977.933 348.393L977.166 349.389L977.201 350.646L976.016 350.225L974.831 350.646L974.866 349.389L974.099 348.393L975.305 348.037L976.016 347Z" fill="white" fill-opacity="0.6"/>
<path d="M1327.44 595L1328.31 596.257L1329.77 596.688L1328.84 597.896L1328.88 599.42L1327.44 598.909L1326.01 599.42L1326.05 597.896L1325.12 596.688L1326.58 596.257L1327.44 595Z" fill="white" fill-opacity="0.3"/>
<path d="M996.188 167L996.96 168.126L998.27 168.512L997.437 169.594L997.475 170.958L996.188 170.501L994.902 170.958L994.94 169.594L994.107 168.512L995.417 168.126L996.188 167Z" fill="white" fill-opacity="0.4"/>
<path d="M531.876 567L532.537 567.965L533.659 568.296L532.946 569.223L532.978 570.393L531.876 570.001L530.773 570.393L530.806 569.223L530.092 568.296L531.214 567.965L531.876 567Z" fill="white" fill-opacity="0.4"/>
<path d="M556.731 381L557.341 381.891L558.377 382.196L557.719 383.052L557.748 384.131L556.731 383.769L555.714 384.131L555.743 383.052L555.085 382.196L556.121 381.891L556.731 381Z" fill="white" fill-opacity="0.6"/>
<path d="M664.229 107L665.015 108.147L666.348 108.54L665.5 109.642L665.539 111.031L664.229 110.565L662.919 111.031L662.957 109.642L662.109 108.54L663.443 108.147L664.229 107Z" fill="white" fill-opacity="0.6"/>
<path d="M969.62 328L970.191 328.833L971.16 329.119L970.544 329.92L970.572 330.93L969.62 330.591L968.668 330.93L968.696 329.92L968.08 329.119L969.049 328.833L969.62 328Z" fill="white" fill-opacity="0.3"/>
<path d="M655.829 795L656.474 795.941L657.568 796.263L656.872 797.167L656.904 798.308L655.829 797.926L654.754 798.308L654.785 797.167L654.09 796.263L655.184 795.941L655.829 795Z" fill="white" fill-opacity="0.3"/>
<path d="M362.3 192L363.111 193.183L364.487 193.589L363.612 194.726L363.652 196.16L362.3 195.68L360.948 196.16L360.988 194.726L360.113 193.589L361.489 193.183L362.3 192Z" fill="white" fill-opacity="0.4"/>
<path d="M180.222 601L181.005 602.143L182.335 602.535L181.49 603.633L181.528 605.019L180.222 604.554L178.916 605.019L178.954 603.633L178.109 602.535L179.438 602.143L180.222 601Z" fill="white" fill-opacity="0.3"/>
<path d="M416.09 122L416.826 123.075L418.077 123.444L417.282 124.477L417.318 125.779L416.09 125.343L414.862 125.779L414.897 124.477L414.103 123.444L415.353 123.075L416.09 122Z" fill="white" fill-opacity="0.6"/>
<path d="M978.009 271L978.718 272.034L979.92 272.388L979.156 273.382L979.19 274.634L978.009 274.215L976.828 274.634L976.863 273.382L976.099 272.388L977.301 272.034L978.009 271Z" fill="white" fill-opacity="0.5"/>
<path d="M488.067 166L488.796 167.064L490.033 167.428L489.246 168.45L489.282 169.739L488.067 169.307L486.852 169.739L486.888 168.45L486.102 167.428L487.338 167.064L488.067 166Z" fill="white" fill-opacity="0.5"/>
<path d="M763.639 592L764.216 592.843L765.197 593.132L764.573 593.942L764.602 594.964L763.639 594.621L762.676 594.964L762.704 593.942L762.081 593.132L763.061 592.843L763.639 592Z" fill="white" fill-opacity="0.6"/>
<path d="M152.109 804L152.853 805.085L154.115 805.457L153.313 806.5L153.349 807.815L152.109 807.374L150.87 807.815L150.906 806.5L150.104 805.457L151.365 805.085L152.109 804Z" fill="white" fill-opacity="0.5"/>
<path d="M619.22 743L620.002 744.142L621.33 744.534L620.486 745.631L620.524 747.015L619.22 746.551L617.915 747.015L617.953 745.631L617.109 744.534L618.437 744.142L619.22 743Z" fill="white" fill-opacity="0.5"/>
<path d="M990.628 693L991.201 693.837L992.175 694.124L991.556 694.929L991.584 695.944L990.628 695.604L989.671 695.944L989.699 694.929L989.08 694.124L990.054 693.837L990.628 693Z" fill="white" fill-opacity="0.5"/>
<path d="M1060.91 658L1061.59 658.983L1062.73 659.32L1062 660.265L1062.03 661.457L1060.91 661.057L1059.79 661.457L1059.82 660.265L1059.09 659.32L1060.24 658.983L1060.91 658Z" fill="white" fill-opacity="0.4"/>
<path d="M770.531 569L771.07 569.787L771.986 570.057L771.404 570.814L771.43 571.768L770.531 571.449L769.631 571.768L769.657 570.814L769.075 570.057L769.991 569.787L770.531 569Z" fill="white" fill-opacity="0.4"/>
<path d="M600.148 49L600.905 50.1049L602.19 50.4837L601.373 51.5453L601.41 52.8843L600.148 52.4355L598.885 52.8843L598.922 51.5453L598.105 50.4837L599.39 50.1049L600.148 49Z" fill="white" fill-opacity="0.4"/>
<path d="M952.502 307L953.032 307.773L953.93 308.038L953.359 308.78L953.385 309.717L952.502 309.403L951.619 309.717L951.645 308.78L951.074 308.038L951.972 307.773L952.502 307Z" fill="white" fill-opacity="0.4"/>
<path d="M530.295 769L531.104 770.181L532.477 770.585L531.604 771.72L531.643 773.151L530.295 772.671L528.946 773.151L528.986 771.72L528.113 770.585L529.486 770.181L530.295 769Z" fill="white" fill-opacity="0.3"/>
<path d="M713.546 183L714.091 183.795L715.015 184.068L714.428 184.832L714.454 185.796L713.546 185.473L712.637 185.796L712.664 184.832L712.076 184.068L713.001 183.795L713.546 183Z" fill="white" fill-opacity="0.3"/>
<path d="M915.631 240L916.206 240.839L917.182 241.127L916.562 241.933L916.59 242.95L915.631 242.609L914.673 242.95L914.701 241.933L914.08 241.127L915.056 240.839L915.631 240Z" fill="white" fill-opacity="0.3"/>
<path d="M-56.9718 380L-56.2567 381.043L-55.0433 381.401L-55.8147 382.404L-55.7799 383.668L-56.9718 383.245L-58.1638 383.668L-58.129 382.404L-58.9004 381.401L-57.687 381.043L-56.9718 380Z" fill="white" fill-opacity="0.6"/>
<path d="M275.254 433L276.049 434.16L277.398 434.557L276.541 435.672L276.579 437.078L275.254 436.606L273.929 437.078L273.968 435.672L273.111 434.557L274.459 434.16L275.254 433Z" fill="white" fill-opacity="0.4"/>
<path d="M535.602 79L536.167 79.8243L537.126 80.1068L536.516 80.8988L536.544 81.8978L535.602 81.563L534.661 81.8978L534.688 80.8988L534.079 80.1068L535.037 79.8243L535.602 79Z" fill="white" fill-opacity="0.4"/>
<path d="M1297.93 441L1298.61 441.995L1299.77 442.335L1299.04 443.291L1299.07 444.496L1297.93 444.092L1296.8 444.496L1296.83 443.291L1296.09 442.335L1297.25 441.995L1297.93 441Z" fill="white" fill-opacity="0.4"/>
<path d="M546.695 815L547.292 815.872L548.306 816.171L547.661 817.008L547.69 818.065L546.695 817.711L545.699 818.065L545.728 817.008L545.083 816.171L546.097 815.872L546.695 815Z" fill="white" fill-opacity="0.4"/>
<path d="M1219.78 145L1220.41 145.917L1221.48 146.231L1220.8 147.111L1220.83 148.222L1219.78 147.85L1218.73 148.222L1218.77 147.111L1218.09 146.231L1219.15 145.917L1219.78 145Z" fill="white" fill-opacity="0.6"/>
<path d="M-50.6479 463L-49.8185 464.21L-48.4112 464.625L-49.3058 465.788L-49.2655 467.254L-50.6479 466.763L-52.0302 467.254L-51.9899 465.788L-52.8845 464.625L-51.4773 464.21L-50.6479 463Z" fill="white" fill-opacity="0.5"/>
<path d="M197.97 469L198.665 470.014L199.844 470.361L199.095 471.335L199.128 472.564L197.97 472.152L196.812 472.564L196.846 471.335L196.097 470.361L197.276 470.014L197.97 469Z" fill="white" fill-opacity="0.5"/>
<path d="M736.98 172L737.678 173.019L738.862 173.368L738.109 174.346L738.143 175.581L736.98 175.167L735.816 175.581L735.85 174.346L735.097 173.368L736.282 173.019L736.98 172Z" fill="white" fill-opacity="0.6"/>
<path d="M1064.65 28L1065.23 28.8465L1066.21 29.1366L1065.58 29.95L1065.61 30.9758L1064.65 30.6319L1063.68 30.9758L1063.71 29.95L1063.08 29.1366L1064.07 28.8465L1064.65 28Z" fill="white" fill-opacity="0.6"/>
<path d="M483.56 767L484.11 767.803L485.043 768.078L484.45 768.849L484.477 769.821L483.56 769.495L482.643 769.821L482.67 768.849L482.077 768.078L483.01 767.803L483.56 767Z" fill="white" fill-opacity="0.6"/>
<path d="M822.602 798L823.167 798.824L824.125 799.107L823.516 799.898L823.543 800.897L822.602 800.562L821.661 800.897L821.688 799.898L821.079 799.107L822.037 798.824L822.602 798Z" fill="white" fill-opacity="0.5"/>
<path d="M681.735 100L682.347 100.893L683.385 101.199L682.725 102.056L682.755 103.138L681.735 102.775L680.715 103.138L680.745 102.056L680.085 101.199L681.123 100.893L681.735 100Z" fill="white" fill-opacity="0.5"/>
<path d="M218.931 400L219.612 400.994L220.768 401.334L220.033 402.289L220.066 403.493L218.931 403.09L217.796 403.493L217.829 402.289L217.095 401.334L218.25 400.994L218.931 400Z" fill="white" fill-opacity="0.5"/>
<path d="M933.525 132L934.063 132.785L934.975 133.054L934.395 133.808L934.421 134.758L933.525 134.44L932.629 134.758L932.655 133.808L932.075 133.054L932.987 132.785L933.525 132Z" fill="white" fill-opacity="0.3"/>
<path d="M423.346 548L424.174 549.207L425.578 549.621L424.685 550.781L424.726 552.244L423.346 551.754L421.967 552.244L422.008 550.781L421.115 549.621L422.519 549.207L423.346 548Z" fill="white" fill-opacity="0.6"/>
<path d="M477.941 160L478.625 160.998L479.786 161.341L479.048 162.3L479.081 163.51L477.941 163.105L476.8 163.51L476.833 162.3L476.095 161.341L477.256 160.998L477.941 160Z" fill="white" fill-opacity="0.4"/>
<path d="M827.729 -23L828.338 -22.1107L829.372 -21.8058L828.715 -20.9513L828.744 -19.8736L827.729 -20.2348L826.713 -19.8736L826.742 -20.9513L826.085 -21.8058L827.119 -22.1107L827.729 -23Z" fill="white" fill-opacity="0.4"/>
<path d="M1030.13 342L1030.88 343.094L1032.15 343.469L1031.34 344.52L1031.38 345.846L1030.13 345.402L1028.88 345.846L1028.91 344.52L1028.1 343.469L1029.38 343.094L1030.13 342Z" fill="white" fill-opacity="0.4"/>
<path d="M316.296 58L317.106 59.1815L318.48 59.5865L317.606 60.7216L317.646 62.1534L316.296 61.6735L314.947 62.1534L314.986 60.7216L314.113 59.5865L315.487 59.1815L316.296 58Z" fill="white" fill-opacity="0.4"/>
<path d="M734.513 777L735.047 777.779L735.952 778.045L735.377 778.793L735.403 779.737L734.513 779.421L733.624 779.737L733.65 778.793L733.074 778.045L733.98 777.779L734.513 777Z" fill="white" fill-opacity="0.6"/>
<path d="M1059.21 796L1059.98 797.135L1061.3 797.524L1060.47 798.615L1060.5 799.991L1059.21 799.53L1057.91 799.991L1057.95 798.615L1057.11 797.524L1058.43 797.135L1059.21 796Z" fill="white" fill-opacity="0.5"/>
<path d="M1282.81 372L1283.44 372.93L1284.53 373.249L1283.84 374.142L1283.87 375.269L1282.81 374.892L1281.75 375.269L1281.78 374.142L1281.09 373.249L1282.17 372.93L1282.81 372Z" fill="white" fill-opacity="0.5"/>
<path d="M179.74 178L180.353 178.895L181.394 179.202L180.732 180.062L180.762 181.147L179.74 180.783L178.717 181.147L178.747 180.062L178.085 179.202L179.126 178.895L179.74 178Z" fill="white" fill-opacity="0.4"/>
<path d="M383.364 251L384.197 252.216L385.611 252.633L384.712 253.802L384.753 255.275L383.364 254.781L381.975 255.275L382.015 253.802L381.116 252.633L382.53 252.216L383.364 251Z" fill="white" fill-opacity="0.5"/>
<path d="M-60.9414 122L-60.2156 123.059L-58.9839 123.422L-59.7669 124.44L-59.7316 125.723L-60.9414 125.293L-62.1512 125.723L-62.1159 124.44L-62.8989 123.422L-61.6673 123.059L-60.9414 122Z" fill="white" fill-opacity="0.3"/>
<path d="M1299.94 47L1300.62 47.9981L1301.78 48.3402L1301.05 49.2993L1301.08 50.5088L1299.94 50.1034L1298.8 50.5088L1298.83 49.2993L1298.1 48.3402L1299.26 47.9981L1299.94 47Z" fill="white" fill-opacity="0.5"/>
<path d="M468.89 446L469.556 446.972L470.687 447.306L469.968 448.24L470 449.418L468.89 449.023L467.779 449.418L467.812 448.24L467.093 447.306L468.223 446.972L468.89 446Z" fill="white" fill-opacity="0.5"/>
<path d="M-16.3518 317L-15.7706 317.848L-14.7846 318.139L-15.4115 318.953L-15.3832 319.981L-16.3518 319.637L-17.3204 319.981L-17.2921 318.953L-17.919 318.139L-16.9329 317.848L-16.3518 317Z" fill="white" fill-opacity="0.4"/>
<path d="M220.613 720L221.181 720.83L222.146 721.114L221.532 721.911L221.56 722.916L220.613 722.579L219.665 722.916L219.693 721.911L219.079 721.114L220.044 720.83L220.613 720Z" fill="white" fill-opacity="0.6"/>
<path d="M131.086 498L131.822 499.073L133.07 499.441L132.276 500.473L132.312 501.773L131.086 501.337L129.86 501.773L129.896 500.473L129.102 499.441L130.351 499.073L131.086 498Z" fill="white" fill-opacity="0.6"/>
<path d="M847.146 554L847.902 555.104L849.186 555.482L848.37 556.543L848.406 557.881L847.146 557.432L845.885 557.881L845.921 556.543L845.105 555.482L846.389 555.104L847.146 554Z" fill="white" fill-opacity="0.5"/>
<path d="M1250.59 52L1251.15 52.8181L1252.1 53.0985L1251.5 53.8845L1251.52 54.8759L1250.59 54.5436L1249.66 54.8759L1249.68 53.8845L1249.08 53.0985L1250.03 52.8181L1250.59 52Z" fill="white" fill-opacity="0.4"/>
<path d="M344.662 430L345.248 430.855L346.242 431.148L345.61 431.97L345.639 433.006L344.662 432.659L343.685 433.006L343.714 431.97L343.082 431.148L344.076 430.855L344.662 430Z" fill="white" fill-opacity="0.4"/>
<path d="M1105.39 689L1106.23 690.229L1107.66 690.651L1106.75 691.831L1106.79 693.321L1105.39 692.822L1103.98 693.321L1104.03 691.831L1103.12 690.651L1104.55 690.229L1105.39 689Z" fill="white" fill-opacity="0.4"/>
<path d="M118.47 766L119.342 767.271L120.82 767.707L119.88 768.928L119.922 770.468L118.47 769.952L117.019 770.468L117.061 768.928L116.121 767.707L117.599 767.271L118.47 766Z" fill="white" fill-opacity="0.3"/>
<path d="M1214.33 590L1215.15 591.197L1216.54 591.607L1215.65 592.756L1215.69 594.206L1214.33 593.72L1212.96 594.206L1213 592.756L1212.11 591.607L1213.51 591.197L1214.33 590Z" fill="white" fill-opacity="0.5"/>
<path d="M906.086 445L906.821 446.073L908.069 446.441L907.276 447.472L907.312 448.773L906.086 448.337L904.86 448.773L904.896 447.472L904.102 446.441L905.35 446.073L906.086 445Z" fill="white" fill-opacity="0.5"/>
<path d="M1316.03 479L1316.75 480.045L1317.96 480.403L1317.19 481.407L1317.22 482.674L1316.03 482.249L1314.84 482.674L1314.87 481.407L1314.1 480.403L1315.32 480.045L1316.03 479Z" fill="white" fill-opacity="0.3"/>
<path d="M1155.81 530L1156.44 530.929L1157.52 531.248L1156.84 532.141L1156.87 533.267L1155.81 532.889L1154.74 533.267L1154.78 532.141L1154.09 531.248L1155.17 530.929L1155.81 530Z" fill="white" fill-opacity="0.6"/>
<path d="M457.98 124L458.678 125.019L459.862 125.368L459.109 126.347L459.143 127.581L457.98 127.167L456.816 127.581L456.85 126.347L456.097 125.368L457.282 125.019L457.98 124Z" fill="white" fill-opacity="0.5"/>
<path d="M323.053 154L323.777 155.056L325.006 155.419L324.225 156.434L324.26 157.714L323.053 157.285L321.847 157.714L321.882 156.434L321.101 155.419L322.329 155.056L323.053 154Z" fill="white" fill-opacity="0.5"/>
<path d="M8.26054 103L9.05764 104.163L10.4101 104.562L9.55027 105.679L9.58904 107.089L8.26054 106.616L6.93203 107.089L6.97079 105.679L6.11097 104.562L7.46343 104.163L8.26054 103Z" fill="white" fill-opacity="0.4"/>
<path d="M801.85 833L802.502 833.952L803.609 834.278L802.905 835.192L802.937 836.346L801.85 835.959L800.763 836.346L800.794 835.192L800.091 834.278L801.198 833.952L801.85 833Z" fill="white" fill-opacity="0.4"/>
<path d="M602.892 38L603.559 38.9734L604.691 39.3071L603.971 40.2424L604.004 41.422L602.892 41.0266L601.78 41.422L601.813 40.2424L601.093 39.3071L602.225 38.9734L602.892 38Z" fill="white" fill-opacity="0.3"/>
<path d="M407.92 -34L408.597 -33.0123L409.745 -32.6737L409.015 -31.7247L409.048 -30.5277L407.92 -30.9289L406.792 -30.5277L406.824 -31.7247L406.094 -32.6737L407.243 -33.0123L407.92 -34Z" fill="white" fill-opacity="0.3"/>
<path d="M1081.23 115L1082.02 116.15L1083.36 116.544L1082.51 117.649L1082.55 119.043L1081.23 118.575L1079.92 119.043L1079.96 117.649L1079.11 116.544L1080.45 116.15L1081.23 115Z" fill="white" fill-opacity="0.3"/>
<path d="M714.909 674L715.582 674.982L716.724 675.319L715.998 676.263L716.031 677.453L714.909 677.054L713.787 677.453L713.82 676.263L713.094 675.319L714.236 674.982L714.909 674Z" fill="white" fill-opacity="0.3"/>
<path d="M448.442 112L449.304 113.257L450.765 113.687L449.836 114.895L449.878 116.418L448.442 115.907L447.007 116.418L447.049 114.895L446.12 113.687L447.581 113.257L448.442 112Z" fill="white" fill-opacity="0.4"/>
<path d="M34.2773 701L35.0803 702.172L36.4428 702.573L35.5766 703.699L35.6157 705.119L34.2773 704.643L32.9389 705.119L32.978 703.699L32.1118 702.573L33.4743 702.172L34.2773 701Z" fill="white" fill-opacity="0.3"/>
<path d="M744.143 -29L744.899 -27.8974L746.181 -27.5195L745.366 -26.4601L745.402 -25.1239L744.143 -25.5718L742.884 -25.1239L742.92 -26.4601L742.105 -27.5195L743.387 -27.8974L744.143 -29Z" fill="white" fill-opacity="0.5"/>
<path d="M151.881 347L152.544 347.968L153.669 348.299L152.954 349.229L152.986 350.402L151.881 350.008L150.775 350.402L150.808 349.229L150.092 348.299L151.218 347.968L151.881 347Z" fill="white" fill-opacity="0.4"/>
<path d="M760.345 806L761.173 807.207L762.576 807.62L761.684 808.78L761.724 810.242L760.345 809.752L758.967 810.242L759.007 808.78L758.115 807.62L759.518 807.207L760.345 806Z" fill="white" fill-opacity="0.4"/>
<path d="M319.269 -32L320.069 -30.8325L321.427 -30.4323L320.564 -29.3106L320.603 -27.8958L319.269 -28.37L317.936 -27.8958L317.974 -29.3106L317.111 -30.4323L318.469 -30.8325L319.269 -32Z" fill="white" fill-opacity="0.5"/>
<path d="M1154.74 406L1155.36 406.898L1156.4 407.205L1155.74 408.068L1155.77 409.155L1154.74 408.791L1153.72 409.155L1153.75 408.068L1153.09 407.205L1154.13 406.898L1154.74 406Z" fill="white" fill-opacity="0.3"/>
<path d="M-8.99821 140L-8.29235 141.03L-7.09471 141.383L-7.85611 142.373L-7.82178 143.621L-8.99821 143.202L-10.1746 143.621L-10.1403 142.373L-10.9017 141.383L-9.70406 141.03L-8.99821 140Z" fill="white" fill-opacity="0.6"/>
<path d="M761.769 124L762.393 124.91L763.451 125.222L762.778 126.097L762.809 127.2L761.769 126.83L760.729 127.2L760.76 126.097L760.087 125.222L761.145 124.91L761.769 124Z" fill="white" fill-opacity="0.6"/>
<path d="M818.89 220L819.557 220.973L820.688 221.306L819.969 222.241L820.001 223.419L818.89 223.024L817.779 223.419L817.812 222.241L817.093 221.306L818.224 220.973L818.89 220Z" fill="white" fill-opacity="0.4"/>
<path d="M457.096 293L457.836 294.079L459.09 294.448L458.293 295.485L458.328 296.792L457.096 296.354L455.864 296.792L455.9 295.485L455.103 294.448L456.357 294.079L457.096 293Z" fill="white" fill-opacity="0.5"/>
<path d="M835.317 181L836.133 182.192L837.519 182.6L836.638 183.746L836.678 185.19L835.317 184.706L833.955 185.19L833.995 183.746L833.114 182.6L834.5 182.192L835.317 181Z" fill="white" fill-opacity="0.5"/>
<path d="M1175 -9L1175.71 -7.97L1176.91 -7.61693L1176.14 -6.62729L1176.18 -5.37908L1175 -5.79745L1173.83 -5.37908L1173.86 -6.62729L1173.1 -7.61693L1174.3 -7.97L1175 -9Z" fill="white" fill-opacity="0.4"/>
<path d="M-65.8753 533L-65.1261 534.093L-63.8549 534.468L-64.6631 535.518L-64.6267 536.843L-65.8753 536.399L-67.124 536.843L-67.0875 535.518L-67.8957 534.468L-66.6245 534.093L-65.8753 533Z" fill="white" fill-opacity="0.5"/>
<path d="M66.7827 430L67.4114 430.917L68.4779 431.232L67.7999 432.113L67.8304 433.224L66.7827 432.852L65.7351 433.224L65.7657 432.113L65.0876 431.232L66.1541 430.917L66.7827 430Z" fill="white" fill-opacity="0.5"/>
<path d="M986.856 775L987.511 775.955L988.621 776.282L987.915 777.2L987.947 778.357L986.856 777.969L985.765 778.357L985.797 777.2L985.091 776.282L986.202 775.955L986.856 775Z" fill="white" fill-opacity="0.3"/>
<path d="M811.968 39L812.661 40.0123L813.839 40.3593L813.09 41.332L813.124 42.5588L811.968 42.1476L810.811 42.5588L810.845 41.332L810.097 40.3593L811.274 40.0123L811.968 39Z" fill="white" fill-opacity="0.4"/>
<path d="M577.382 134L578.222 135.226L579.648 135.646L578.742 136.824L578.782 138.309L577.382 137.811L575.982 138.309L576.023 136.824L575.117 135.646L576.542 135.226L577.382 134Z" fill="white" fill-opacity="0.4"/>
<path d="M1032.53 602L1033.07 602.787L1033.98 603.057L1033.4 603.813L1033.43 604.767L1032.53 604.448L1031.63 604.767L1031.66 603.813L1031.08 603.057L1031.99 602.787L1032.53 602Z" fill="white" fill-opacity="0.3"/>
<path d="M3.19099 733L3.96356 734.127L5.27441 734.514L4.44104 735.597L4.47861 736.963L3.19099 736.505L1.90336 736.963L1.94093 735.597L1.10757 734.514L2.41841 734.127L3.19099 733Z" fill="white" fill-opacity="0.4"/>
<path d="M1025.03 214L1025.74 215.042L1026.95 215.399L1026.18 216.401L1026.22 217.663L1025.03 217.24L1023.84 217.663L1023.87 216.401L1023.1 215.399L1024.31 215.042L1025.03 214Z" fill="white" fill-opacity="0.6"/>
<path d="M1241.95 788L1242.64 789.006L1243.81 789.35L1243.07 790.317L1243.1 791.536L1241.95 791.127L1240.81 791.536L1240.84 790.317L1240.1 789.35L1241.27 789.006L1241.95 788Z" fill="white" fill-opacity="0.6"/>
<path d="M554.76 156L555.38 156.905L556.433 157.216L555.764 158.086L555.794 159.183L554.76 158.815L553.726 159.183L553.756 158.086L553.086 157.216L554.139 156.905L554.76 156Z" fill="white" fill-opacity="0.4"/>
<path d="M1348.81 585L1349.44 585.929L1350.52 586.248L1349.84 587.141L1349.87 588.267L1348.81 587.89L1347.74 588.267L1347.78 587.141L1347.09 586.248L1348.17 585.929L1348.81 585Z" fill="white" fill-opacity="0.4"/>
<path d="M1232.21 410L1232.99 411.137L1234.31 411.527L1233.47 412.62L1233.51 413.998L1232.21 413.536L1230.91 413.998L1230.95 412.62L1230.11 411.527L1231.43 411.137L1232.21 410Z" fill="white" fill-opacity="0.4"/>
<path d="M-69.5633 377L-68.7041 378.254L-67.2462 378.683L-68.173 379.888L-68.1313 381.407L-69.5633 380.898L-70.9954 381.407L-70.9536 379.888L-71.8804 378.683L-70.4225 378.254L-69.5633 377Z" fill="white" fill-opacity="0.4"/>
<path d="M1053.02 553L1053.73 554.038L1054.94 554.394L1054.17 555.392L1054.2 556.65L1053.02 556.229L1051.83 556.65L1051.87 555.392L1051.1 554.394L1052.31 554.038L1053.02 553Z" fill="white" fill-opacity="0.5"/>
<path d="M441.199 1L441.975 2.13165L443.291 2.51956L442.454 3.60687L442.492 4.97827L441.199 4.51861L439.907 4.97827L439.945 3.60687L439.108 2.51956L440.424 2.13165L441.199 1Z" fill="white" fill-opacity="0.6"/>
<path d="M640.737 322L641.349 322.894L642.389 323.2L641.728 324.059L641.758 325.142L640.737 324.779L639.716 325.142L639.746 324.059L639.085 323.2L640.125 322.894L640.737 322Z" fill="white" fill-opacity="0.5"/>
<path d="M1269.79 69L1270.43 69.9233L1271.5 70.2397L1270.82 71.1268L1270.85 72.2457L1269.79 71.8707L1268.74 72.2457L1268.77 71.1268L1268.09 70.2397L1269.16 69.9233L1269.79 69Z" fill="white" fill-opacity="0.3"/>
<path d="M624.622 -8L625.195 -7.16526L626.165 -6.87912L625.548 -6.07709L625.576 -5.06551L624.622 -5.40456L623.669 -5.06551L623.697 -6.07709L623.08 -6.87912L624.05 -7.16526L624.622 -8Z" fill="white" fill-opacity="0.3"/>
<path d="M553.787 -2L554.418 -1.08037L555.487 -0.765137L554.807 0.118462L554.838 1.23292L553.787 0.859383L552.737 1.23292L552.768 0.118462L552.088 -0.765137L553.157 -1.08037L553.787 -2Z" fill="white" fill-opacity="0.6"/>
<path d="M261.327 417L262.148 418.197L263.54 418.608L262.655 419.758L262.695 421.209L261.327 420.723L259.959 421.209L259.999 419.758L259.114 418.608L260.507 418.197L261.327 417Z" fill="white" fill-opacity="0.6"/>
<path d="M-47.8997 172L-47.159 173.081L-45.9024 173.451L-46.7013 174.489L-46.6653 175.799L-47.8997 175.36L-49.134 175.799L-49.098 174.489L-49.8969 173.451L-48.6403 173.081L-47.8997 172Z" fill="white" fill-opacity="0.4"/>
<path d="M267.77 469L268.394 469.911L269.453 470.223L268.78 471.098L268.81 472.201L267.77 471.831L266.73 472.201L266.76 471.098L266.087 470.223L267.146 469.911L267.77 469Z" fill="white" fill-opacity="0.5"/>
<path d="M1216.83 738L1217.47 738.939L1218.56 739.261L1217.87 740.163L1217.9 741.302L1216.83 740.92L1215.75 741.302L1215.78 740.163L1215.09 739.261L1216.18 738.939L1216.83 738Z" fill="white" fill-opacity="0.4"/>
<path d="M811.709 827L812.311 827.879L813.334 828.181L812.684 829.025L812.713 830.091L811.709 829.734L810.705 830.091L810.734 829.025L810.084 828.181L811.106 827.879L811.709 827Z" fill="white" fill-opacity="0.6"/>
<path d="M625.408 262L626.257 263.239L627.697 263.663L626.781 264.854L626.823 266.355L625.408 265.852L623.993 266.355L624.034 264.854L623.118 263.663L624.559 263.239L625.408 262Z" fill="white" fill-opacity="0.6"/>
<path d="M258.997 523L259.702 524.028L260.897 524.38L260.137 525.367L260.171 526.613L258.997 526.195L257.824 526.613L257.858 525.367L257.098 524.38L258.293 524.028L258.997 523Z" fill="white" fill-opacity="0.5"/>
<path d="M1091.86 127L1092.52 127.959L1093.64 128.288L1092.93 129.21L1092.96 130.372L1091.86 129.982L1090.77 130.372L1090.8 129.21L1090.09 128.288L1091.21 127.959L1091.86 127Z" fill="white" fill-opacity="0.5"/>
<path d="M1157.08 4L1157.81 5.069L1159.05 5.43544L1158.26 6.46255L1158.3 7.75802L1157.08 7.32381L1155.86 7.75802L1155.89 6.46255L1155.1 5.43544L1156.35 5.069L1157.08 4Z" fill="white" fill-opacity="0.5"/>
<path d="M268.074 313L268.806 314.067L270.047 314.433L269.258 315.458L269.293 316.752L268.074 316.318L266.855 316.752L266.891 315.458L266.102 314.433L267.343 314.067L268.074 313Z" fill="white" fill-opacity="0.4"/>
<path d="M-29.8696 33L-29.1185 34.0961L-27.8439 34.4718L-28.6542 35.5249L-28.6177 36.8532L-29.8696 36.408L-31.1216 36.8532L-31.0851 35.5249L-31.8954 34.4718L-30.6208 34.0961L-29.8696 33Z" fill="white" fill-opacity="0.5"/>
<path d="M325.467 567L326.337 568.269L327.814 568.705L326.875 569.924L326.917 571.463L325.467 570.947L324.017 571.463L324.06 569.924L323.121 568.705L324.597 568.269L325.467 567Z" fill="white" fill-opacity="0.5"/>
<path d="M566.337 750L567.161 751.202L568.559 751.614L567.67 752.77L567.71 754.227L566.337 753.738L564.963 754.227L565.004 752.77L564.115 751.614L565.513 751.202L566.337 750Z" fill="white" fill-opacity="0.5"/>
<path d="M30.7544 73L31.3729 73.9026L32.4225 74.212L31.7553 75.0792L31.7853 76.173L30.7544 75.8064L29.7234 76.173L29.7535 75.0792L29.0862 74.212L30.1358 73.9026L30.7544 73Z" fill="white" fill-opacity="0.5"/>
<path d="M69.4598 541L70.3272 542.266L71.7989 542.699L70.8632 543.915L70.9054 545.449L69.4598 544.935L68.0142 545.449L68.0564 543.915L67.1207 542.699L68.5924 542.266L69.4598 541Z" fill="white" fill-opacity="0.6"/>
<path d="M25.6283 488L26.2025 488.838L27.1766 489.125L26.5573 489.93L26.5852 490.945L25.6283 490.605L24.6714 490.945L24.6993 489.93L24.08 489.125L25.0542 488.838L25.6283 488Z" fill="white" fill-opacity="0.5"/>
<path d="M708.073 784L708.804 785.067L710.045 785.432L709.256 786.457L709.292 787.75L708.073 787.317L706.855 787.75L706.89 786.457L706.102 785.432L707.342 785.067L708.073 784Z" fill="white" fill-opacity="0.4"/>
<path d="M1058.67 486L1059.25 486.857L1060.25 487.151L1059.62 487.975L1059.65 489.014L1058.67 488.666L1057.69 489.014L1057.72 487.975L1057.08 487.151L1058.08 486.857L1058.67 486Z" fill="white" fill-opacity="0.5"/>
<path d="M1134.67 435L1135.25 435.858L1136.25 436.152L1135.62 436.976L1135.65 438.015L1134.67 437.667L1133.69 438.015L1133.72 436.976L1133.08 436.152L1134.08 435.858L1134.67 435Z" fill="white" fill-opacity="0.6"/>
<path d="M627.846 401L628.497 401.95L629.602 402.276L628.9 403.188L628.931 404.34L627.846 403.954L626.761 404.34L626.793 403.188L626.091 402.276L627.195 401.95L627.846 401Z" fill="white" fill-opacity="0.6"/>
<path d="M1147.77 403L1148.4 403.912L1149.46 404.225L1148.79 405.102L1148.82 406.207L1147.77 405.837L1146.73 406.207L1146.76 405.102L1146.09 404.225L1147.15 403.912L1147.77 403Z" fill="white" fill-opacity="0.5"/>
<path d="M1317.76 281L1318.38 281.904L1319.43 282.214L1318.76 283.083L1318.79 284.178L1317.76 283.811L1316.72 284.178L1316.75 283.083L1316.09 282.214L1317.14 281.904L1317.76 281Z" fill="white" fill-opacity="0.6"/>
<path d="M174.098 174L174.838 175.079L176.093 175.449L175.295 176.486L175.331 177.794L174.098 177.356L172.865 177.794L172.901 176.486L172.103 175.449L173.358 175.079L174.098 174Z" fill="white" fill-opacity="0.5"/>
<path d="M333.74 25L334.354 25.8954L335.395 26.2023L334.733 27.0627L334.763 28.1478L333.74 27.7841L332.718 28.1478L332.747 27.0627L332.086 26.2023L333.127 25.8954L333.74 25Z" fill="white" fill-opacity="0.5"/>
<path d="M1066.63 36L1067.2 36.8362L1068.17 37.1228L1067.55 37.9262L1067.58 38.9395L1066.63 38.5998L1065.67 38.9395L1065.7 37.9262L1065.08 37.1228L1066.05 36.8362L1066.63 36Z" fill="white" fill-opacity="0.6"/>
<path d="M703.406 453L704.254 454.238L705.694 454.662L704.779 455.852L704.82 457.352L703.406 456.849L701.992 457.352L702.033 455.852L701.118 454.662L702.558 454.238L703.406 453Z" fill="white" fill-opacity="0.3"/>
<path d="M1226.67 730L1227.26 730.858L1228.25 731.152L1227.62 731.976L1227.65 733.016L1226.67 732.667L1225.69 733.016L1225.72 731.976L1225.08 731.152L1226.08 730.858L1226.67 730Z" fill="white" fill-opacity="0.5"/>
<path d="M796.72 -12L797.327 -11.1149L798.356 -10.8115L797.702 -9.96115L797.731 -8.88857L796.72 -9.24807L795.709 -8.88857L795.739 -9.96115L795.085 -10.8115L796.114 -11.1149L796.72 -12Z" fill="white" fill-opacity="0.5"/>
<path d="M1221.94 301L1222.62 301.998L1223.78 302.34L1223.05 303.298L1223.08 304.507L1221.94 304.102L1220.8 304.507L1220.83 303.298L1220.1 302.34L1221.26 301.998L1221.94 301Z" fill="white" fill-opacity="0.4"/>
<path d="M96.0217 88L96.7346 89.0402L97.9442 89.3968L97.1752 90.3962L97.2099 91.6567L96.0217 91.2342L94.8336 91.6567L94.8683 90.3962L94.0993 89.3968L95.3089 89.0402L96.0217 88Z" fill="white" fill-opacity="0.5"/>
<path d="M6.26857 813L7.06851 814.167L8.42579 814.567L7.5629 815.689L7.60181 817.103L6.26857 816.629L4.93534 817.103L4.97424 815.689L4.11136 814.567L5.46864 814.167L6.26857 813Z" fill="white" fill-opacity="0.5"/>
<path d="M449.478 525L450.352 526.275L451.834 526.712L450.891 527.937L450.934 529.482L449.478 528.964L448.022 529.482L448.064 527.937L447.122 526.712L448.604 526.275L449.478 525Z" fill="white" fill-opacity="0.3"/>
<path d="M625.942 581L626.627 581.999L627.789 582.342L627.051 583.302L627.084 584.513L625.942 584.107L624.801 584.513L624.834 583.302L624.095 582.342L625.257 581.999L625.942 581Z" fill="white" fill-opacity="0.3"/>
<path d="M127.921 138L128.598 138.988L129.747 139.327L129.017 140.277L129.05 141.474L127.921 141.073L126.792 141.474L126.825 140.277L126.094 139.327L127.244 138.988L127.921 138Z" fill="white" fill-opacity="0.4"/>
<path d="M321.516 100L322.05 100.78L322.957 101.047L322.381 101.796L322.407 102.741L321.516 102.425L320.625 102.741L320.651 101.796L320.075 101.047L320.981 100.78L321.516 100Z" fill="white" fill-opacity="0.3"/>
<path d="M-46.5355 55L-45.6664 56.2681L-44.1919 56.7027L-45.1293 57.9211L-45.087 59.4578L-46.5355 58.9427L-47.9839 59.4578L-47.9416 57.9211L-48.879 56.7027L-47.4045 56.2681L-46.5355 55Z" fill="white" fill-opacity="0.4"/>
<path d="M618.058 437L618.784 438.059L620.016 438.422L619.233 439.44L619.268 440.723L618.058 440.293L616.849 440.723L616.884 439.44L616.101 438.422L617.333 438.059L618.058 437Z" fill="white" fill-opacity="0.6"/>
<path d="M28.8934 292L29.5611 292.974L30.6939 293.308L29.9737 294.244L30.0062 295.425L28.8934 295.029L27.7807 295.425L27.8132 294.244L27.093 293.308L28.2258 292.974L28.8934 292Z" fill="white" fill-opacity="0.5"/>
<path d="M1106.25 112L1107.05 113.16L1108.4 113.557L1107.54 114.672L1107.58 116.077L1106.25 115.606L1104.93 116.077L1104.97 114.672L1104.11 113.557L1105.46 113.16L1106.25 112Z" fill="white" fill-opacity="0.4"/>
<path d="M-65.5876 469L-64.7369 470.241L-63.2935 470.667L-64.2111 471.859L-64.1698 473.363L-65.5876 472.859L-67.0054 473.363L-66.964 471.859L-67.8816 470.667L-66.4382 470.241L-65.5876 469Z" fill="white" fill-opacity="0.4"/>
<path d="M971.136 519L971.889 520.099L973.167 520.476L972.355 521.532L972.391 522.863L971.136 522.417L969.881 522.863L969.917 521.532L969.105 520.476L970.383 520.099L971.136 519Z" fill="white" fill-opacity="0.3"/>
<path d="M777.49 374L778.368 375.281L779.858 375.72L778.911 376.951L778.953 378.504L777.49 377.983L776.027 378.504L776.069 376.951L775.122 375.72L776.612 375.281L777.49 374Z" fill="white" fill-opacity="0.6"/>
<path d="M1113.37 -19L1114.2 -17.7831L1115.61 -17.3659L1114.71 -16.1966L1114.76 -14.7219L1113.37 -15.2162L1111.98 -14.7219L1112.02 -16.1966L1111.12 -17.3659L1112.53 -17.7831L1113.37 -19Z" fill="white" fill-opacity="0.6"/>
<path d="M725.113 397L725.858 398.087L727.123 398.46L726.319 399.505L726.355 400.822L725.113 400.381L723.871 400.822L723.908 399.505L723.104 398.46L724.368 398.087L725.113 397Z" fill="white" fill-opacity="0.3"/>
<path d="M438.153 784L438.912 785.108L440.2 785.487L439.381 786.551L439.418 787.894L438.153 787.444L436.888 787.894L436.924 786.551L436.106 785.487L437.394 785.108L438.153 784Z" fill="white" fill-opacity="0.3"/>
<path d="M1242.77 412L1243.39 412.91L1244.45 413.221L1243.78 414.095L1243.81 415.197L1242.77 414.828L1241.73 415.197L1241.76 414.095L1241.09 413.221L1242.14 412.91L1242.77 412Z" fill="white" fill-opacity="0.6"/>
<path d="M700.632 763L701.207 763.84L702.184 764.127L701.563 764.934L701.591 765.952L700.632 765.61L699.673 765.952L699.701 764.934L699.08 764.127L700.057 763.84L700.632 763Z" fill="white" fill-opacity="0.4"/>
<path d="M842.26 498L843.056 499.163L844.408 499.561L843.549 500.678L843.588 502.087L842.26 501.615L840.932 502.087L840.97 500.678L840.111 499.561L841.463 499.163L842.26 498Z" fill="white" fill-opacity="0.5"/>
<path d="M1182.5 -20L1183.04 -19.2258L1183.94 -18.9604L1183.36 -18.2166L1183.39 -17.2784L1182.5 -17.5928L1181.62 -17.2784L1181.65 -18.2166L1181.07 -18.9604L1181.97 -19.2258L1182.5 -20Z" fill="white" fill-opacity="0.4"/>
<path d="M837.981 282L838.68 283.019L839.865 283.369L839.111 284.348L839.145 285.583L837.981 285.169L836.817 285.583L836.851 284.348L836.097 283.369L837.283 283.019L837.981 282Z" fill="white" fill-opacity="0.5"/>
<path d="M427.904 330L428.576 330.98L429.715 331.316L428.991 332.257L429.023 333.444L427.904 333.046L426.785 333.444L426.818 332.257L426.094 331.316L427.233 330.98L427.904 330Z" fill="white" fill-opacity="0.4"/>
<path d="M75.8038 550L76.4398 550.928L77.519 551.246L76.8329 552.138L76.8638 553.262L75.8038 552.885L74.7437 553.262L74.7747 552.138L74.0886 551.246L75.1678 550.928L75.8038 550Z" fill="white" fill-opacity="0.3"/>
<path d="M259.132 827L259.883 828.097L261.159 828.473L260.348 829.526L260.384 830.855L259.132 830.41L257.879 830.855L257.915 829.526L257.105 828.473L258.38 828.097L259.132 827Z" fill="white" fill-opacity="0.4"/>
<path d="M309.054 485L309.779 486.057L311.008 486.419L310.226 487.435L310.262 488.716L309.054 488.286L307.847 488.716L307.882 487.435L307.101 486.419L308.33 486.057L309.054 485Z" fill="white" fill-opacity="0.4"/>
<path d="M711.942 521L712.626 521.999L713.788 522.341L713.05 523.301L713.083 524.512L711.942 524.106L710.801 524.512L710.834 523.301L710.095 522.341L711.257 521.999L711.942 521Z" fill="white" fill-opacity="0.4"/>
<path d="M-9.32721 538L-8.73738 538.861L-7.73662 539.156L-8.37286 539.983L-8.34417 541.026L-9.32721 540.676L-10.3102 541.026L-10.2816 539.983L-10.9178 539.156L-9.91703 538.861L-9.32721 538Z" fill="white" fill-opacity="0.4"/>
<path d="M284.31 86L285.124 87.1883L286.506 87.5957L285.627 88.7374L285.667 90.1775L284.31 89.6949L282.952 90.1775L282.992 88.7374L282.113 87.5957L283.495 87.1883L284.31 86Z" fill="white" fill-opacity="0.4"/>
<path d="M835.17 -25L835.935 -23.8835L837.234 -23.5008L836.408 -22.428L836.445 -21.075L835.17 -21.5285L833.895 -21.075L833.932 -22.428L833.107 -23.5008L834.405 -23.8835L835.17 -25Z" fill="white" fill-opacity="0.6"/>
<path d="M140.511 397L141.044 397.778L141.949 398.044L141.374 398.791L141.4 399.734L140.511 399.418L139.623 399.734L139.649 398.791L139.074 398.044L139.979 397.778L140.511 397Z" fill="white" fill-opacity="0.3"/>
<path d="M1127.87 776L1128.54 776.964L1129.66 777.295L1128.94 778.221L1128.98 779.39L1127.87 778.998L1126.77 779.39L1126.8 778.221L1126.09 777.295L1127.21 776.964L1127.87 776Z" fill="white" fill-opacity="0.3"/>
<path d="M1195.07 160L1195.8 161.066L1197.04 161.431L1196.25 162.455L1196.29 163.746L1195.07 163.313L1193.85 163.746L1193.89 162.455L1193.1 161.431L1194.34 161.066L1195.07 160Z" fill="white" fill-opacity="0.5"/>
<path d="M148.819 433L149.46 433.936L150.549 434.257L149.857 435.156L149.888 436.29L148.819 435.91L147.75 436.29L147.781 435.156L147.089 434.257L148.178 433.936L148.819 433Z" fill="white" fill-opacity="0.5"/>
<path d="M548.818 228L549.459 228.935L550.547 229.256L549.856 230.155L549.887 231.289L548.818 230.909L547.75 231.289L547.781 230.155L547.089 229.256L548.177 228.935L548.818 228Z" fill="white" fill-opacity="0.4"/>
<path d="M-20.3979 651L-19.833 651.824L-18.8746 652.107L-19.4839 652.899L-19.4564 653.898L-20.3979 653.563L-21.3394 653.898L-21.3119 652.899L-21.9213 652.107L-20.9628 651.824L-20.3979 651Z" fill="white" fill-opacity="0.4"/>
<path d="M146.944 698L147.63 699L148.793 699.343L148.053 700.304L148.087 701.516L146.944 701.11L145.802 701.516L145.835 700.304L145.095 699.343L146.259 699L146.944 698Z" fill="white" fill-opacity="0.3"/>
<path d="M588.088 848L588.824 849.074L590.074 849.443L589.28 850.475L589.315 851.777L588.088 851.341L586.861 851.777L586.897 850.475L586.103 849.443L587.352 849.074L588.088 848Z" fill="white" fill-opacity="0.4"/>
<path d="M345.754 704L346.372 704.902L347.421 705.212L346.754 706.079L346.784 707.172L345.754 706.805L344.723 707.172L344.753 706.079L344.086 705.212L345.135 704.902L345.754 704Z" fill="white" fill-opacity="0.5"/>
<path d="M439.489 467L440.367 468.281L441.856 468.72L440.909 469.95L440.952 471.502L439.489 470.982L438.026 471.502L438.069 469.95L437.122 468.72L438.611 468.281L439.489 467Z" fill="white" fill-opacity="0.5"/>
<path d="M833.807 739L834.444 739.93L835.526 740.249L834.838 741.142L834.869 742.269L833.807 741.891L832.745 742.269L832.776 741.142L832.089 740.249L833.17 739.93L833.807 739Z" fill="white" fill-opacity="0.6"/>
<path d="M857.495 116L858.375 117.284L859.868 117.724L858.919 118.958L858.962 120.513L857.495 119.992L856.029 120.513L856.072 118.958L855.122 117.724L856.615 117.284L857.495 116Z" fill="white" fill-opacity="0.4"/>
<path d="M939.177 471L939.944 472.12L941.246 472.504L940.418 473.58L940.456 474.937L939.177 474.482L937.897 474.937L937.935 473.58L937.107 472.504L938.409 472.12L939.177 471Z" fill="white" fill-opacity="0.3"/>
<path d="M354.852 320L355.505 320.953L356.612 321.279L355.908 322.195L355.94 323.349L354.852 322.962L353.764 323.349L353.795 322.195L353.091 321.279L354.199 320.953L354.852 320Z" fill="white" fill-opacity="0.4"/>
<path d="M1193.35 529L1194.18 530.209L1195.59 530.624L1194.69 531.786L1194.73 533.252L1193.35 532.76L1191.97 533.252L1192.01 531.786L1191.12 530.624L1192.52 530.209L1193.35 529Z" fill="white" fill-opacity="0.5"/>
<path d="M321.167 83L321.931 84.1149L323.227 84.497L322.403 85.5682L322.44 86.9192L321.167 86.4664L319.893 86.9192L319.931 85.5682L319.106 84.497L320.403 84.1149L321.167 83Z" fill="white" fill-opacity="0.4"/>
<path d="M1131.88 176L1132.54 176.967L1133.67 177.298L1132.95 178.227L1132.98 179.398L1131.88 179.005L1130.77 179.398L1130.81 178.227L1130.09 177.298L1131.22 176.967L1131.88 176Z" fill="white" fill-opacity="0.6"/>
<path d="M129.65 643L130.232 643.849L131.22 644.14L130.592 644.956L130.62 645.985L129.65 645.64L128.681 645.985L128.709 644.956L128.081 644.14L129.068 643.849L129.65 643Z" fill="white" fill-opacity="0.3"/>
<path d="M762.254 830L763.049 831.16L764.397 831.557L763.54 832.671L763.578 834.077L762.254 833.606L760.929 834.077L760.968 832.671L760.111 831.557L761.459 831.16L762.254 830Z" fill="white" fill-opacity="0.5"/>
<path d="M16.5905 354L17.1514 354.818L18.1029 355.099L17.498 355.885L17.5252 356.877L16.5905 356.544L15.6558 356.877L15.6831 355.885L15.0782 355.099L16.0297 354.818L16.5905 354Z" fill="white" fill-opacity="0.6"/>
<path d="M505.409 38L506.259 39.2395L507.7 39.6644L506.784 40.8554L506.825 42.3575L505.409 41.8541L503.993 42.3575L504.035 40.8554L503.118 39.6644L504.56 39.2395L505.409 38Z" fill="white" fill-opacity="0.6"/>
<path d="M438.442 605L439.303 606.257L440.765 606.687L439.836 607.895L439.877 609.417L438.442 608.907L437.007 609.417L437.049 607.895L436.12 606.687L437.581 606.257L438.442 605Z" fill="white" fill-opacity="0.4"/>
<path d="M952.75 211L953.368 211.901L954.415 212.209L953.749 213.075L953.779 214.166L952.75 213.8L951.722 214.166L951.752 213.075L951.086 212.209L952.133 211.901L952.75 211Z" fill="white" fill-opacity="0.3"/>
<path d="M1077.03 272L1077.75 273.047L1078.97 273.406L1078.2 274.412L1078.23 275.681L1077.03 275.255L1075.84 275.681L1075.87 274.412L1075.1 273.406L1076.32 273.047L1077.03 272Z" fill="white" fill-opacity="0.5"/>
<path d="M300.028 55L300.742 56.0432L301.956 56.4007L301.184 57.403L301.219 58.6672L300.028 58.2435L298.836 58.6672L298.871 57.403L298.1 56.4007L299.313 56.0432L300.028 55Z" fill="white" fill-opacity="0.4"/>
<path d="M922.352 94L923.181 95.2099L924.588 95.6246L923.693 96.7871L923.734 98.2533L922.352 97.7619L920.97 98.2533L921.01 96.7871L920.115 95.6246L921.522 95.2099L922.352 94Z" fill="white" fill-opacity="0.6"/>
<path d="M943.248 824L944.041 825.157L945.386 825.553L944.531 826.665L944.57 828.067L943.248 827.597L941.927 828.067L941.966 826.665L941.11 825.553L942.456 825.157L943.248 824Z" fill="white" fill-opacity="0.6"/>
<path d="M700.402 62L701.249 63.2359L702.686 63.6595L701.773 64.847L701.814 66.3447L700.402 65.8427L698.99 66.3447L699.032 64.847L698.118 63.6595L699.555 63.2359L700.402 62Z" fill="white" fill-opacity="0.5"/>
<path d="M-40.9916 759L-40.2834 760.033L-39.0818 760.388L-39.8458 761.38L-39.8113 762.633L-40.9916 762.213L-42.1719 762.633L-42.1375 761.38L-42.9014 760.388L-41.6998 760.033L-40.9916 759Z" fill="white" fill-opacity="0.4"/>
<path d="M983.464 685L984.332 686.268L985.806 686.702L984.869 687.92L984.911 689.456L983.464 688.941L982.016 689.456L982.058 687.92L981.121 686.702L982.595 686.268L983.464 685Z" fill="white" fill-opacity="0.3"/>
<path d="M51.514 845L52.0478 845.779L52.9536 846.046L52.3778 846.794L52.4037 847.738L51.514 847.422L50.6243 847.738L50.6503 846.794L50.0744 846.046L50.9802 845.779L51.514 845Z" fill="white" fill-opacity="0.5"/>
<path d="M874.52 -13L875.056 -12.2178L875.966 -11.9497L875.388 -11.1982L875.414 -10.2503L874.52 -10.568L873.627 -10.2503L873.653 -11.1982L873.075 -11.9497L873.984 -12.2178L874.52 -13Z" fill="white" fill-opacity="0.6"/>
<path d="M1081.54 121L1082.09 121.793L1083.01 122.065L1082.42 122.827L1082.45 123.788L1081.54 123.466L1080.64 123.788L1080.66 122.827L1080.08 122.065L1081 121.793L1081.54 121Z" fill="white" fill-opacity="0.3"/>
<path d="M941.858 524L942.514 524.956L943.625 525.284L942.919 526.202L942.95 527.361L941.858 526.973L940.766 527.361L940.798 526.202L940.091 525.284L941.203 524.956L941.858 524Z" fill="white" fill-opacity="0.4"/>
<path d="M1185.49 551L1186.37 552.283L1187.87 552.723L1186.92 553.957L1186.96 555.512L1185.49 554.991L1184.03 555.512L1184.07 553.957L1183.12 552.723L1184.61 552.283L1185.49 551Z" fill="white" fill-opacity="0.5"/>
<path d="M110.295 386L111.105 387.181L112.478 387.586L111.605 388.721L111.645 390.152L110.295 389.672L108.946 390.152L108.986 388.721L108.113 387.586L109.486 387.181L110.295 386Z" fill="white" fill-opacity="0.5"/>
<path d="M832.223 495L833.006 496.143L834.336 496.535L833.491 497.634L833.529 499.02L832.223 498.555L830.916 499.02L830.954 497.634L830.109 496.535L831.439 496.143L832.223 495Z" fill="white" fill-opacity="0.3"/>
<path d="M698.196 767L698.97 768.13L700.284 768.517L699.449 769.603L699.486 770.972L698.196 770.513L696.905 770.972L696.943 769.603L696.108 768.517L697.422 768.13L698.196 767Z" fill="white" fill-opacity="0.5"/>
<path d="M846.526 147L847.064 147.785L847.976 148.054L847.396 148.808L847.422 149.759L846.526 149.44L845.629 149.759L845.655 148.808L845.075 148.054L845.988 147.785L846.526 147Z" fill="white" fill-opacity="0.5"/>
<path d="M319.058 354L319.783 355.059L321.014 355.422L320.232 356.439L320.267 357.722L319.058 357.292L317.848 357.722L317.884 356.439L317.101 355.422L318.332 355.059L319.058 354Z" fill="white" fill-opacity="0.6"/>
<path d="M158.631 235L159.207 235.839L160.183 236.127L159.562 236.933L159.59 237.951L158.631 237.61L157.673 237.951L157.701 236.933L157.08 236.127L158.056 235.839L158.631 235Z" fill="white" fill-opacity="0.5"/>
<path d="M1249.89 317L1250.56 317.974L1251.69 318.308L1250.97 319.245L1251.01 320.426L1249.89 320.03L1248.78 320.426L1248.81 319.245L1248.09 318.308L1249.23 317.974L1249.89 317Z" fill="white" fill-opacity="0.3"/>
<path d="M-24.5242 183L-23.6512 184.274L-22.17 184.71L-23.1117 185.934L-23.0692 187.478L-24.5242 186.961L-25.9793 187.478L-25.9368 185.934L-26.8785 184.71L-25.3972 184.274L-24.5242 183Z" fill="white" fill-opacity="0.5"/>
<path d="M294.444 157L295.306 158.258L296.768 158.689L295.839 159.897L295.881 161.421L294.444 160.91L293.008 161.421L293.05 159.897L292.12 158.689L293.582 158.258L294.444 157Z" fill="white" fill-opacity="0.4"/>
<path d="M255.727 -16L256.335 -15.1117L257.368 -14.8072L256.712 -13.9536L256.741 -12.8771L255.727 -13.2379L254.712 -12.8771L254.742 -13.9536L254.085 -14.8072L255.118 -15.1117L255.727 -16Z" fill="white" fill-opacity="0.4"/>
<path d="M602.623 428L603.195 428.835L604.166 429.121L603.549 429.923L603.576 430.935L602.623 430.596L601.669 430.935L601.697 429.923L601.08 429.121L602.051 428.835L602.623 428Z" fill="white" fill-opacity="0.4"/>
<path d="M270.059 436L270.786 437.06L272.018 437.423L271.234 438.441L271.27 439.725L270.059 439.295L268.849 439.725L268.884 438.441L268.101 437.423L269.333 437.06L270.059 436Z" fill="white" fill-opacity="0.3"/>
<path d="M-46.621 489L-45.7822 490.224L-44.3589 490.644L-45.2637 491.82L-45.2229 493.303L-46.621 492.806L-48.0192 493.303L-47.9784 491.82L-48.8832 490.644L-47.4599 490.224L-46.621 489Z" fill="white" fill-opacity="0.4"/>
<path d="M868.815 54L869.455 54.9337L870.541 55.2538L869.85 56.151L869.881 57.2825L868.815 56.9033L867.748 57.2825L867.779 56.151L867.089 55.2538L868.175 54.9337L868.815 54Z" fill="white" fill-opacity="0.6"/>
<path d="M298.684 118L299.278 118.867L300.286 119.164L299.645 119.996L299.674 121.046L298.684 120.694L297.695 121.046L297.723 119.996L297.083 119.164L298.09 118.867L298.684 118Z" fill="white" fill-opacity="0.5"/>
<path d="M651.836 40L652.483 40.9446L653.582 41.2684L652.883 42.1759L652.915 43.3206L651.836 42.937L650.757 43.3206L650.789 42.1759L650.09 41.2684L651.189 40.9446L651.836 40Z" fill="white" fill-opacity="0.5"/>
<path d="M792.909 431L793.582 431.982L794.723 432.319L793.997 433.262L794.03 434.452L792.909 434.053L791.787 434.452L791.82 433.262L791.094 432.319L792.236 431.982L792.909 431Z" fill="white" fill-opacity="0.6"/>
<path d="M102.471 254L103.342 255.271L104.82 255.707L103.88 256.928L103.923 258.469L102.471 257.952L101.019 258.469L101.061 256.928L100.121 255.707L101.599 255.271L102.471 254Z" fill="white" fill-opacity="0.4"/>
<path d="M388.627 586L389.201 586.837L390.174 587.124L389.555 587.928L389.583 588.943L388.627 588.603L387.671 588.943L387.699 587.928L387.08 587.124L388.053 586.837L388.627 586Z" fill="white" fill-opacity="0.5"/>
<path d="M592.345 518L593.172 519.207L594.575 519.62L593.683 520.779L593.723 522.242L592.345 521.752L590.967 522.242L591.007 520.779L590.115 519.62L591.518 519.207L592.345 518Z" fill="white" fill-opacity="0.3"/>
<path d="M589.188 755L589.959 756.126L591.268 756.511L590.436 757.593L590.473 758.957L589.188 758.5L587.902 758.957L587.939 757.593L587.107 756.511L588.416 756.126L589.188 755Z" fill="white" fill-opacity="0.3"/>
<path d="M389.585 407L390.144 407.816L391.092 408.095L390.49 408.879L390.517 409.867L389.585 409.536L388.654 409.867L388.681 408.879L388.078 408.095L389.026 407.816L389.585 407Z" fill="white" fill-opacity="0.5"/>
<path d="M428.008 439L428.715 440.033L429.916 440.387L429.153 441.379L429.187 442.631L428.008 442.211L426.828 442.631L426.862 441.379L426.099 440.387L427.3 440.033L428.008 439Z" fill="white" fill-opacity="0.6"/>
<path d="M526.564 407L527.116 407.805L528.051 408.081L527.457 408.854L527.483 409.829L526.564 409.502L525.645 409.829L525.672 408.854L525.077 408.081L526.013 407.805L526.564 407Z" fill="white" fill-opacity="0.3"/>
<path d="M293.536 386L294.077 386.79L294.996 387.061L294.412 387.82L294.438 388.778L293.536 388.457L292.633 388.778L292.66 387.82L292.076 387.061L292.994 386.79L293.536 386Z" fill="white" fill-opacity="0.5"/>
<path d="M900.876 379L901.537 379.965L902.659 380.296L901.946 381.223L901.978 382.393L900.876 382.001L899.773 382.393L899.806 381.223L899.092 380.296L900.214 379.965L900.876 379Z" fill="white" fill-opacity="0.4"/>
<path d="M355.341 460L356.167 461.205L357.568 461.618L356.677 462.775L356.717 464.235L355.341 463.746L353.965 464.235L354.006 462.775L353.115 461.618L354.516 461.205L355.341 460Z" fill="white" fill-opacity="0.4"/>
<path d="M1135.14 319L1135.89 320.099L1137.17 320.475L1136.35 321.531L1136.39 322.863L1135.14 322.416L1133.88 322.863L1133.92 321.531L1133.1 320.475L1134.38 320.099L1135.14 319Z" fill="white" fill-opacity="0.6"/>
<path d="M539.936 160L540.619 160.996L541.777 161.338L541.041 162.295L541.074 163.502L539.936 163.097L538.798 163.502L538.832 162.295L538.095 161.338L539.253 160.996L539.936 160Z" fill="white" fill-opacity="0.4"/>
<path d="M396.161 825L396.923 826.112L398.215 826.493L397.393 827.561L397.431 828.908L396.161 828.457L394.891 828.908L394.928 827.561L394.106 826.493L395.399 826.112L396.161 825Z" fill="white" fill-opacity="0.4"/>
<path d="M944.965 152L945.658 153.011L946.833 153.357L946.086 154.329L946.12 155.554L944.965 155.143L943.81 155.554L943.844 154.329L943.096 153.357L944.272 153.011L944.965 152Z" fill="white" fill-opacity="0.4"/>
<path d="M550.262 509L551.059 510.164L552.412 510.563L551.552 511.681L551.591 513.091L550.262 512.618L548.932 513.091L548.971 511.681L548.111 510.563L549.464 510.164L550.262 509Z" fill="white" fill-opacity="0.4"/>
<path d="M451.452 301L452.316 302.262L453.783 302.694L452.851 303.906L452.893 305.435L451.452 304.922L450.011 305.435L450.053 303.906L449.12 302.694L450.587 302.262L451.452 301Z" fill="white" fill-opacity="0.5"/>
<path d="M488.413 620L489.264 621.241L490.707 621.667L489.79 622.86L489.831 624.364L488.413 623.86L486.995 624.364L487.036 622.86L486.118 621.667L487.562 621.241L488.413 620Z" fill="white" fill-opacity="0.6"/>
<path d="M43.5693 620L44.1226 620.807L45.0615 621.084L44.4646 621.86L44.4915 622.838L43.5693 622.51L42.6471 622.838L42.674 621.86L42.0771 621.084L43.016 620.807L43.5693 620Z" fill="white" fill-opacity="0.6"/>
<path d="M1244.08 584L1244.81 585.069L1246.05 585.435L1245.26 586.462L1245.3 587.757L1244.08 587.323L1242.86 587.757L1242.89 586.462L1242.1 585.435L1243.34 585.069L1244.08 584Z" fill="white" fill-opacity="0.6"/>
<path d="M977.526 430L978.064 430.785L978.977 431.054L978.397 431.809L978.423 432.76L977.526 432.441L976.629 432.76L976.655 431.809L976.075 431.054L976.988 430.785L977.526 430Z" fill="white" fill-opacity="0.4"/>
<path d="M1046.54 446L1047.08 446.793L1048.01 447.064L1047.42 447.826L1047.45 448.787L1046.54 448.465L1045.64 448.787L1045.66 447.826L1045.08 447.064L1046 446.793L1046.54 446Z" fill="white" fill-opacity="0.6"/>
<path d="M33.5226 542L34.0595 542.783L34.9704 543.052L34.3913 543.805L34.4174 544.754L33.5226 544.436L32.6279 544.754L32.654 543.805L32.0749 543.052L32.9858 542.783L33.5226 542Z" fill="white" fill-opacity="0.3"/>
<path d="M155.7 520L156.299 520.875L157.317 521.174L156.67 522.015L156.699 523.075L155.7 522.719L154.701 523.075L154.73 522.015L154.084 521.174L155.101 520.875L155.7 520Z" fill="white" fill-opacity="0.4"/>
<path d="M136.998 525L137.703 526.028L138.898 526.38L138.138 527.368L138.172 528.614L136.998 528.196L135.824 528.614L135.858 527.368L135.098 526.38L136.294 526.028L136.998 525Z" fill="white" fill-opacity="0.5"/>
<path d="M63.0005 394L63.7059 395.029L64.9028 395.382L64.1419 396.371L64.1762 397.618L63.0005 397.2L61.8248 397.618L61.8591 396.371L61.0982 395.382L62.2951 395.029L63.0005 394Z" fill="white" fill-opacity="0.4"/>
<path d="M411.439 59L412.299 60.2548L413.758 60.6849L412.83 61.8906L412.872 63.4112L411.439 62.9016L410.006 63.4112L410.047 61.8906L409.12 60.6849L410.579 60.2548L411.439 59Z" fill="white" fill-opacity="0.6"/>
<path d="M581.851 614L582.504 614.952L583.611 615.279L582.907 616.194L582.939 617.348L581.851 616.961L580.763 617.348L580.795 616.194L580.091 615.279L581.198 614.952L581.851 614Z" fill="white" fill-opacity="0.3"/>
<path d="M226.292 804L227.1 805.179L228.471 805.583L227.599 806.716L227.638 808.145L226.292 807.666L224.945 808.145L224.984 806.716L224.112 805.583L225.484 805.179L226.292 804Z" fill="white" fill-opacity="0.5"/>
<path d="M233.578 340L234.135 340.812L235.079 341.09L234.479 341.871L234.506 342.855L233.578 342.525L232.651 342.855L232.678 341.871L232.078 341.09L233.022 340.812L233.578 340Z" fill="white" fill-opacity="0.5"/>
<path d="M181.582 428L182.14 428.814L183.086 429.093L182.485 429.875L182.512 430.861L181.582 430.531L180.652 430.861L180.679 429.875L180.078 429.093L181.024 428.814L181.582 428Z" fill="white" fill-opacity="0.4"/>
<path d="M72.2375 27L73.0265 28.1512L74.3652 28.5458L73.5141 29.652L73.5525 31.0471L72.2375 30.5795L70.9225 31.0471L70.9609 29.652L70.1098 28.5458L71.4485 28.1512L72.2375 27Z" fill="white" fill-opacity="0.5"/>
<path d="M422.86 615L423.516 615.957L424.629 616.285L423.921 617.204L423.953 618.364L422.86 617.976L421.767 618.364L421.799 617.204L421.091 616.285L422.204 615.957L422.86 615Z" fill="white" fill-opacity="0.3"/>
<path d="M524.594 420L525.156 420.82L526.11 421.101L525.504 421.889L525.531 422.883L524.594 422.55L523.657 422.883L523.685 421.889L523.078 421.101L524.032 420.82L524.594 420Z" fill="white" fill-opacity="0.6"/>
<path d="M276.775 196L277.401 196.913L278.464 197.227L277.788 198.104L277.819 199.211L276.775 198.84L275.732 199.211L275.762 198.104L275.087 197.227L276.149 196.913L276.775 196Z" fill="white" fill-opacity="0.5"/>
<path d="M867.945 66L868.631 67.0006L869.794 67.3436L869.054 68.305L869.088 69.5176L867.945 69.1112L866.802 69.5176L866.835 68.305L866.096 67.3436L867.259 67.0006L867.945 66Z" fill="white" fill-opacity="0.4"/>
<path d="M1331.21 158L1331.99 159.137L1333.31 159.527L1332.47 160.619L1332.51 161.997L1331.21 161.535L1329.91 161.997L1329.95 160.619L1329.11 159.527L1330.43 159.137L1331.21 158Z" fill="white" fill-opacity="0.5"/>
<path d="M863.876 159L864.538 159.965L865.66 160.296L864.946 161.224L864.979 162.393L863.876 162.001L862.774 162.393L862.806 161.224L862.092 160.296L863.215 159.965L863.876 159Z" fill="white" fill-opacity="0.4"/>
<path d="M3.46669 158L4.3365 159.269L5.81233 159.704L4.87408 160.924L4.91637 162.462L3.46669 161.946L2.01701 162.462L2.05931 160.924L1.12106 159.704L2.59689 159.269L3.46669 158Z" fill="white" fill-opacity="0.5"/>
<path d="M46.1236 717L46.8724 718.093L48.1429 718.467L47.3352 719.517L47.3716 720.841L46.1236 720.397L44.8756 720.841L44.912 719.517L44.1043 718.467L45.3748 718.093L46.1236 717Z" fill="white" fill-opacity="0.5"/>
<path d="M695.796 274L696.429 274.924L697.503 275.24L696.82 276.128L696.851 277.247L695.796 276.872L694.74 277.247L694.771 276.128L694.088 275.24L695.162 274.924L695.796 274Z" fill="white" fill-opacity="0.5"/>
<path d="M1308.31 228L1309.12 229.186L1310.5 229.593L1309.62 230.732L1309.66 232.17L1308.31 231.688L1306.95 232.17L1306.99 230.732L1306.11 229.593L1307.49 229.186L1308.31 228Z" fill="white" fill-opacity="0.6"/>
<path d="M1295.4 845L1296.25 846.236L1297.69 846.659L1296.77 847.847L1296.81 849.344L1295.4 848.842L1293.99 849.344L1294.03 847.847L1293.12 846.659L1294.55 846.236L1295.4 845Z" fill="white" fill-opacity="0.4"/>
<path d="M23.6065 538L24.173 538.827L25.1341 539.11L24.5231 539.904L24.5506 540.906L23.6065 540.57L22.6624 540.906L22.69 539.904L22.079 539.11L23.0401 538.827L23.6065 538Z" fill="white" fill-opacity="0.4"/>
<path d="M755.464 188L756.333 189.268L757.808 189.703L756.87 190.921L756.913 192.457L755.464 191.942L754.016 192.457L754.058 190.921L753.121 189.703L754.595 189.268L755.464 188Z" fill="white" fill-opacity="0.3"/>
<path d="M-60.7805 321L-59.9978 322.142L-58.6699 322.533L-59.5141 323.631L-59.4761 325.015L-60.7805 324.551L-62.0849 325.015L-62.0468 323.631L-62.891 322.533L-61.5631 322.142L-60.7805 321Z" fill="white" fill-opacity="0.6"/>
</g>
<defs>
<filter id="filter0_f_258_696" x="-2.64746" y="-139.076" width="2046.96" height="1334.34" filterUnits="userSpaceOnUse" color-interpolation-filters="sRGB">
<feFlood flood-opacity="0" result="BackgroundImageFix"/>
<feBlend mode="normal" in="SourceGraphic" in2="BackgroundImageFix" result="shape"/>
<feGaussianBlur stdDeviation="200" result="effect1_foregroundBlur_258_696"/>
</filter>
<filter id="filter1_f_258_696" x="-1141.15" y="-377.823" width="2307.57" height="1439.05" filterUnits="userSpaceOnUse" color-interpolation-filters="sRGB">
<feFlood flood-opacity="0" result="BackgroundImageFix"/>
<feBlend mode="normal" in="SourceGraphic" in2="BackgroundImageFix" result="shape"/>
<feGaussianBlur stdDeviation="200" result="effect1_foregroundBlur_258_696"/>
</filter>
<clipPath id="clip0_258_696">
<rect width="1280" height="832" fill="white"/>
</clipPath>
</defs>
</svg>
