<svg xmlns="http://www.w3.org/2000/svg" width="18" height="18" fill="none"><path stroke="#1D006F" stroke-linecap="round" stroke-linejoin="round" stroke-width="2" d="M1 4.2v9.6c0 1.12 0 1.68.218 2.108a2 2 0 0 0 .874.874c.427.218.987.218 2.105.218h9.606c1.118 0 1.677 0 2.104-.218.377-.192.683-.498.875-.874.218-.428.218-.986.218-2.104V4.197c0-1.118 0-1.678-.218-2.105a2.001 2.001 0 0 0-.875-.874C15.48 1 14.92 1 13.8 1H4.2c-1.12 0-1.68 0-2.108.218a1.999 1.999 0 0 0-.874.874C1 2.52 1 3.08 1 4.2Z"/></svg>